<?xml version="1.0" encoding="UTF-8" standalone="no"?>
<svg
   xmlns:dc="http://purl.org/dc/elements/1.1/"
   xmlns:cc="http://creativecommons.org/ns#"
   xmlns:rdf="http://www.w3.org/1999/02/22-rdf-syntax-ns#"
   xmlns:svg="http://www.w3.org/2000/svg"
   xmlns="http://www.w3.org/2000/svg"
   xmlns:sodipodi="http://sodipodi.sourceforge.net/DTD/sodipodi-0.dtd"
   xmlns:inkscape="http://www.inkscape.org/namespaces/inkscape"
   viewBox="0 0 600 439.19"
   height="439.19"
   width="600"
   xml:space="preserve"
   id="svg2"
   version="1.1"
   sodipodi:docname="logo_fr.svg"
   inkscape:version="0.92.4 (5da689c313, 2019-01-14)"><sodipodi:namedview
     pagecolor="#ffffff"
     bordercolor="#666666"
     borderopacity="1"
     objecttolerance="10"
     gridtolerance="10"
     guidetolerance="10"
     inkscape:pageopacity="0"
     inkscape:pageshadow="2"
     inkscape:window-width="1920"
     inkscape:window-height="1051"
     id="namedview6589"
     showgrid="false"
     inkscape:zoom="0.89393939"
     inkscape:cx="-320.19489"
     inkscape:cy="238.87912"
     inkscape:window-x="1920"
     inkscape:window-y="0"
     inkscape:window-maximized="1"
     inkscape:current-layer="svg2" /><metadata
     id="metadata8"><rdf:RDF><cc:Work
         rdf:about=""><dc:format>image/svg+xml</dc:format><dc:type
           rdf:resource="http://purl.org/dc/dcmitype/StillImage" /><dc:title></dc:title></cc:Work></rdf:RDF></metadata><defs
     id="defs6"><clipPath
       id="clipPath18"
       clipPathUnits="userSpaceOnUse"><path
         id="path16"
         d="M 0,792 H 612 V 0 H 0 Z"
         inkscape:connector-curvature="0" /></clipPath></defs><g
     transform="matrix(5.9749725,0,0,-5.9749725,-1532.4181,2581.6263)"
     id="g10"><g
       id="g12"><g
         clip-path="url(#clipPath18)"
         id="g14"><g
           transform="translate(269.0068,393.6934)"
           id="g20"><path
             id="path22"
             style="fill:#213787;fill-opacity:1;fill-rule:nonzero;stroke:none"
             d="M 0,0 C 0.026,0.467 -0.997,0.498 -1.462,0.49 -1.934,0.485 -2.956,0.409 -2.982,-0.036 -3.008,-0.482 -1.99,-0.531 -1.52,-0.525 -1.055,-0.519 -0.026,-0.465 0,0 m -3.42,-0.041 c 0.043,0.75 1.164,0.933 1.982,0.943 0.817,0.01 1.918,-0.146 1.876,-0.898 -0.042,-0.749 -1.165,-0.933 -1.981,-0.942 -0.816,-0.008 -1.919,0.147 -1.877,0.897"
             inkscape:connector-curvature="0" /></g><g
           transform="translate(270.3643,393.6797)"
           id="g24"><path
             id="path26"
             style="fill:#1c4483;fill-opacity:1;fill-rule:nonzero;stroke:none"
             d="M 0,0 0.372,-0.326 0.077,-0.494 -0.488,0.028 -0.473,0.303 2.493,0.338 2.477,0.029 Z"
             inkscape:connector-curvature="0" /></g><g
           transform="translate(279.3271,393.8174)"
           id="g28"><path
             id="path30"
             style="fill:#00bef0;fill-opacity:1;fill-rule:nonzero;stroke:none"
             d="M 0,0 0.266,-0.232 0.055,-0.353 -0.348,0.021 -0.335,0.215 1.776,0.24 1.764,0.021 Z"
             inkscape:connector-curvature="0" /></g><g
           transform="translate(275.6162,393.7734)"
           id="g32"><path
             id="path34"
             style="fill:#00569b;fill-opacity:1;fill-rule:nonzero;stroke:none"
             d="M 0,0 C 0.018,0.334 -0.715,0.354 -1.047,0.352 -1.384,0.348 -2.117,0.294 -2.135,-0.025 -2.152,-0.346 -1.426,-0.382 -1.089,-0.376 -0.757,-0.373 -0.021,-0.332 0,0 m -2.448,-0.029 c 0.03,0.537 0.834,0.668 1.419,0.675 0.584,0.008 1.372,-0.107 1.343,-0.642 -0.031,-0.535 -0.834,-0.67 -1.419,-0.675 -0.584,-0.008 -1.374,0.106 -1.343,0.642"
             inkscape:connector-curvature="0" /></g><g
           transform="translate(278.3496,393.7949)"
           id="g36"><path
             id="path38"
             style="fill:#0099d4;fill-opacity:1;fill-rule:nonzero;stroke:none"
             d="M 0,0 C 0.016,0.288 -0.616,0.306 -0.903,0.304 -1.193,0.301 -1.825,0.254 -1.841,-0.021 -1.857,-0.297 -1.23,-0.329 -0.938,-0.325 -0.653,-0.321 -0.018,-0.286 0,0 m -2.112,-0.024 c 0.027,0.462 0.72,0.576 1.224,0.583 0.504,0.004 1.185,-0.094 1.159,-0.555 -0.026,-0.463 -0.72,-0.578 -1.225,-0.582 -0.504,-0.008 -1.186,0.091 -1.158,0.554"
             inkscape:connector-curvature="0" /></g><g
           transform="translate(281.002,396.3936)"
           id="g40"><path
             id="path42"
             style="fill:#00bef0;fill-opacity:1;fill-rule:nonzero;stroke:none"
             d="M 0,0 C 0.041,0.3 -0.617,0.372 -0.919,0.396 -1.222,0.416 -1.889,0.423 -1.928,0.136 -1.969,-0.15 -1.314,-0.238 -1.011,-0.26 -0.71,-0.281 -0.043,-0.298 0,0 m -2.211,0.155 c 0.066,0.482 0.802,0.542 1.331,0.505 0.527,-0.037 1.231,-0.201 1.165,-0.68 -0.067,-0.481 -0.804,-0.542 -1.333,-0.502 -0.527,0.035 -1.232,0.197 -1.163,0.677"
             inkscape:connector-curvature="0" /></g><g
           transform="translate(280.751,391.9072)"
           id="g44"><path
             id="path46"
             style="fill:#00bef0;fill-opacity:1;fill-rule:nonzero;stroke:none"
             d="M 0,0 C -0.042,0.209 -0.494,0.103 -0.696,0.048 -0.901,-0.009 -1.341,-0.158 -1.303,-0.358 -1.261,-0.555 -0.81,-0.461 -0.604,-0.404 -0.403,-0.349 0.042,-0.206 0,0 m -1.491,-0.409 c -0.069,0.33 0.402,0.541 0.758,0.64 0.357,0.098 0.857,0.155 0.925,-0.177 0.069,-0.332 -0.403,-0.543 -0.759,-0.641 -0.357,-0.099 -0.858,-0.156 -0.924,0.178"
             inkscape:connector-curvature="0" /></g><g
           transform="translate(274.7891,390.4688)"
           id="g48"><path
             id="path50"
             style="fill:#213787;fill-opacity:1;fill-rule:nonzero;stroke:none"
             d="M 0,0 0.322,-0.176 0.139,-0.346 -0.357,-0.058 -0.391,0.143 1.744,0.652 1.783,0.428 Z"
             inkscape:connector-curvature="0" /></g><g
           transform="translate(278.6875,391.3584)"
           id="g52"><path
             id="path54"
             style="fill:#0099d4;fill-opacity:1;fill-rule:nonzero;stroke:none"
             d="M 0,0 C -0.041,0.245 -0.573,0.141 -0.813,0.085 -1.057,0.026 -1.575,-0.134 -1.537,-0.367 -1.499,-0.601 -0.967,-0.508 -0.725,-0.45 -0.485,-0.392 0.041,-0.241 0,0 M -1.763,-0.422 C -1.829,-0.03 -1.27,0.2 -0.852,0.3 -0.428,0.401 0.16,0.446 0.227,0.058 0.293,-0.337 -0.268,-0.563 -0.688,-0.666 -1.109,-0.767 -1.697,-0.812 -1.763,-0.422"
             inkscape:connector-curvature="0" /></g><g
           transform="translate(272.8237,405.5542)"
           id="g56"><path
             id="path58"
             style="fill:#0090d5;fill-opacity:1;fill-rule:nonzero;stroke:none"
             d="M 0,0 0.123,-0.59 -0.338,-0.598 -0.504,0.328 -0.248,0.625 2.994,-1.137 2.709,-1.471 Z"
             inkscape:connector-curvature="0" /></g><g
           transform="translate(278.9326,402.6816)"
           id="g60"><path
             id="path62"
             style="fill:#00afef;fill-opacity:1;fill-rule:nonzero;stroke:none"
             d="m 0,0 c 0.307,0.363 -0.469,0.83 -0.832,1.029 -0.369,0.2 -1.207,0.584 -1.5,0.239 C -2.627,0.92 -1.869,0.441 -1.502,0.24 -1.139,0.043 -0.307,-0.359 0,0 m -2.678,1.455 c 0.494,0.58 1.479,0.238 2.119,-0.107 C 0.08,1 0.836,0.395 0.344,-0.186 -0.15,-0.766 -1.133,-0.426 -1.773,-0.08 -2.412,0.27 -3.168,0.871 -2.678,1.455"
             inkscape:connector-curvature="0" /></g><g
           transform="translate(280.1934,402.2168)"
           id="g64"><path
             id="path66"
             style="fill:#00bef0;fill-opacity:1;fill-rule:nonzero;stroke:none"
             d="M 0,0 0.101,-0.48 -0.273,-0.486 -0.41,0.267 -0.203,0.508 2.438,-0.926 2.205,-1.197 Z"
             inkscape:connector-curvature="0" /></g><g
           transform="translate(275.8271,400.3984)"
           id="g68"><path
             id="path70"
             style="fill:#00afef;fill-opacity:1;fill-rule:nonzero;stroke:none"
             d="m 0,0 0.197,-0.484 -0.391,-0.061 -0.281,0.76 0.169,0.283 3.019,-1.097 -0.192,-0.316 z"
             inkscape:connector-curvature="0" /></g><g
           transform="translate(291.9063,422.7061)"
           id="g72"><path
             id="path74"
             style="fill:#213787;fill-opacity:1;fill-rule:nonzero;stroke:none"
             d="M 0,0 C 0.635,0.148 0.413,1.213 0.284,1.689 0.155,2.172 -0.21,3.197 -0.817,3.057 -1.423,2.916 -1.229,1.85 -1.101,1.367 -0.972,0.891 -0.633,-0.148 0,0 M -0.935,3.506 C 0.083,3.742 0.622,2.658 0.845,1.82 1.071,0.982 1.142,-0.215 0.12,-0.449 -0.899,-0.688 -1.437,0.398 -1.661,1.238 -1.886,2.076 -1.958,3.27 -0.935,3.506"
             inkscape:connector-curvature="0" /></g><g
           transform="translate(293.9932,415.8447)"
           id="g76"><path
             id="path78"
             style="fill:#0065aa;fill-opacity:1;fill-rule:nonzero;stroke:none"
             d="M 0,0 C 0.453,0.107 0.294,0.869 0.201,1.209 0.109,1.557 -0.151,2.291 -0.583,2.188 -1.02,2.088 -0.879,1.326 -0.787,0.979 -0.697,0.639 -0.454,-0.105 0,0 M -0.67,2.512 C 0.061,2.68 0.443,1.902 0.605,1.303 0.766,0.703 0.813,-0.15 0.087,-0.322 -0.645,-0.49 -1.031,0.285 -1.19,0.887 -1.35,1.486 -1.402,2.34 -0.67,2.512"
             inkscape:connector-curvature="0" /></g><g
           transform="translate(293.0576,418.9346)"
           id="g80"><path
             id="path82"
             style="fill:#1c4483;fill-opacity:1;fill-rule:nonzero;stroke:none"
             d="M 0,0 C 0.551,0.127 0.354,1.049 0.246,1.463 0.133,1.881 -0.181,2.77 -0.706,2.646 -1.234,2.523 -1.066,1.602 -0.951,1.184 -0.846,0.771 -0.549,-0.127 0,0 M -0.811,3.037 C 0.072,3.242 0.536,2.299 0.732,1.574 0.927,0.85 0.986,-0.184 0.105,-0.393 -0.78,-0.596 -1.245,0.346 -1.439,1.07 -1.632,1.797 -1.695,2.83 -0.811,3.037"
             inkscape:connector-curvature="0" /></g><g
           transform="translate(294.3003,414.7275)"
           id="g84"><path
             id="path86"
             style="fill:#0078b5;fill-opacity:1;fill-rule:nonzero;stroke:none"
             d="m 0,0 -0.295,-0.434 -0.259,0.207 0.478,0.665 0.322,0.074 0.696,-2.608 -0.359,-0.082 z"
             inkscape:connector-curvature="0" /></g><g
           transform="translate(296.3047,407.7471)"
           id="g88"><path
             id="path90"
             style="fill:#44c8f5;fill-opacity:1;fill-rule:nonzero;stroke:none"
             d="M 0,0 C 0.337,0.08 0.22,0.645 0.151,0.896 0.083,1.154 -0.109,1.697 -0.431,1.623 -0.755,1.545 -0.648,0.982 -0.581,0.727 -0.513,0.475 -0.335,-0.076 0,0 M -0.495,1.859 C 0.046,1.984 0.33,1.41 0.448,0.965 0.567,0.521 0.606,-0.111 0.063,-0.236 -0.478,-0.361 -0.762,0.213 -0.878,0.656 -0.997,1.1 -1.034,1.734 -0.495,1.859"
             inkscape:connector-curvature="0" /></g><g
           transform="translate(295.5894,410.2822)"
           id="g92"><path
             id="path94"
             style="fill:#00afef;fill-opacity:1;fill-rule:nonzero;stroke:none"
             d="M 0,0 C 0.371,0.088 0.242,0.71 0.168,0.988 0.092,1.272 -0.121,1.871 -0.475,1.789 -0.832,1.703 -0.714,1.083 -0.641,0.801 -0.564,0.522 -0.369,-0.084 0,0 M -0.546,2.05 C 0.051,2.187 0.364,1.555 0.494,1.063 0.626,0.575 0.669,-0.123 0.07,-0.261 -0.526,-0.399 -0.84,0.234 -0.968,0.723 -1.099,1.212 -1.14,1.912 -0.546,2.05"
             inkscape:connector-curvature="0" /></g><g
           transform="translate(296.9326,405.4131)"
           id="g96"><path
             id="path98"
             style="fill:#44c8f5;fill-opacity:1;fill-rule:nonzero;stroke:none"
             d="M 0,0 C 0.314,0.072 0.201,0.602 0.138,0.838 0.074,1.076 -0.104,1.588 -0.408,1.518 -0.707,1.447 -0.613,0.918 -0.549,0.68 -0.486,0.441 -0.315,-0.074 0,0 M -0.467,1.74 C 0.039,1.859 0.305,1.32 0.416,0.902 0.531,0.486 0.564,-0.105 0.058,-0.225 c -0.507,-0.117 -0.774,0.42 -0.885,0.84 -0.111,0.414 -0.149,1.008 0.36,1.125"
             inkscape:connector-curvature="0" /></g><g
           transform="translate(297.4023,415.0088)"
           id="g100"><path
             id="path102"
             style="fill:#213787;fill-opacity:1;fill-rule:nonzero;stroke:none"
             d="M 0,0 C 0.642,0.115 0.484,1.191 0.385,1.674 0.282,2.162 -0.021,3.205 -0.635,3.096 -1.249,2.986 -1.119,1.91 -1.019,1.424 -0.919,0.941 -0.644,-0.115 0,0 M -0.729,3.549 C 0.304,3.734 0.777,2.623 0.95,1.775 1.125,0.926 1.127,-0.271 0.093,-0.453 -0.938,-0.641 -1.411,0.473 -1.587,1.322 -1.761,2.17 -1.763,3.365 -0.729,3.549"
             inkscape:connector-curvature="0" /></g><g
           transform="translate(297.6475,413.5928)"
           id="g104"><path
             id="path106"
             style="fill:#0065aa;fill-opacity:1;fill-rule:nonzero;stroke:none"
             d="m 0,0 -0.371,-0.488 -0.284,0.256 0.6,0.748 0.381,0.066 0.629,-3.078 -0.425,-0.076 z"
             inkscape:connector-curvature="0" /></g><g
           transform="translate(299.0244,406.9111)"
           id="g108"><path
             id="path110"
             style="fill:#44c8f5;fill-opacity:1;fill-rule:nonzero;stroke:none"
             d="m 0,0 -0.318,-0.418 -0.246,0.219 0.515,0.64 0.326,0.057 0.543,-2.639 -0.366,-0.064 z"
             inkscape:connector-curvature="0" /></g><g
           transform="translate(298.333,410.0752)"
           id="g112"><path
             id="path114"
             style="fill:#0078b5;fill-opacity:1;fill-rule:nonzero;stroke:none"
             d="M 0,0 -0.318,-0.418 -0.563,-0.197 -0.049,0.441 0.276,0.5 0.818,-2.141 0.453,-2.203 Z"
             inkscape:connector-curvature="0" /></g><g
           transform="translate(302.2998,423.0381)"
           id="g116"><path
             id="path118"
             style="fill:#00569b;fill-opacity:1;fill-rule:nonzero;stroke:none"
             d="M 0,0 -0.457,-0.439 -0.718,-0.154 0.013,0.518 0.418,0.539 0.644,-2.586 0.189,-2.615 Z"
             inkscape:connector-curvature="0" /></g><g
           transform="translate(302.0557,427.0293)"
           id="g120"><path
             id="path122"
             style="fill:#1c4483;fill-opacity:1;fill-rule:nonzero;stroke:none"
             d="M 0,0 -0.502,-0.484 -0.788,-0.17 0.016,0.57 0.462,0.594 0.71,-2.846 0.211,-2.875 Z"
             inkscape:connector-curvature="0" /></g><g
           transform="translate(268.4448,407.4888)"
           id="g124"><path
             id="path126"
             style="fill:#0065aa;fill-opacity:1;fill-rule:nonzero;stroke:none"
             d="M 0,0 0.176,-0.643 -0.332,-0.67 -0.574,0.34 -0.313,0.678 3.364,-1.123 3.075,-1.504 Z"
             inkscape:connector-curvature="0" /></g><g
           transform="translate(263.7056,409.5122)"
           id="g128"><path
             id="path130"
             style="fill:#1c4483;fill-opacity:1;fill-rule:nonzero;stroke:none"
             d="m 0,0 0.193,-0.707 -0.558,-0.031 -0.266,1.111 0.287,0.371 4.043,-1.98 -0.316,-0.418 z"
             inkscape:connector-curvature="0" /></g><g
           transform="translate(302.8291,417.3887)"
           id="g132"><path
             id="path134"
             style="fill:#0065aa;fill-opacity:1;fill-rule:nonzero;stroke:none"
             d="M 0,0 C 0.488,0.029 0.475,0.805 0.451,1.156 0.425,1.512 0.304,2.277 -0.164,2.25 -0.635,2.223 -0.646,1.451 -0.617,1.096 -0.595,0.744 -0.49,-0.027 0,0 M -0.188,2.582 C 0.6,2.627 0.838,1.797 0.886,1.18 0.93,0.564 0.809,-0.285 0.022,-0.332 c -0.788,-0.045 -1.03,0.785 -1.075,1.402 -0.043,0.618 0.074,1.465 0.865,1.512"
             inkscape:connector-curvature="0" /></g><g
           transform="translate(301.7793,428.4619)"
           id="g136"><path
             id="path138"
             style="fill:#213787;fill-opacity:1;fill-rule:nonzero;stroke:none"
             d="M 0,0 C 0.683,0.039 0.662,1.124 0.631,1.616 0.594,2.112 0.425,3.183 -0.229,3.144 -0.888,3.105 -0.902,2.026 -0.863,1.53 -0.83,1.04 -0.686,-0.039 0,0 M -0.264,3.609 C 0.838,3.671 1.171,2.511 1.236,1.649 1.299,0.788 1.13,-0.399 0.031,-0.466 c -1.099,-0.061 -1.44,1.1 -1.503,1.961 -0.06,0.863 0.103,2.047 1.208,2.114"
             inkscape:connector-curvature="0" /></g><g
           transform="translate(302.8779,416.1328)"
           id="g140"><path
             id="path142"
             style="fill:#0078b5;fill-opacity:1;fill-rule:nonzero;stroke:none"
             d="M 0,0 -0.393,-0.375 -0.615,-0.131 0.011,0.443 0.357,0.465 0.552,-2.219 0.164,-2.238 Z"
             inkscape:connector-curvature="0" /></g><g
           transform="translate(303.4033,411.5547)"
           id="g144"><path
             id="path146"
             style="fill:#0090d5;fill-opacity:1;fill-rule:nonzero;stroke:none"
             d="M 0,0 C 0.4,0.023 0.393,0.656 0.371,0.943 0.35,1.232 0.252,1.859 -0.132,1.84 -0.517,1.816 -0.523,1.184 -0.502,0.895 -0.483,0.607 -0.398,-0.021 0,0 M -0.152,2.105 C 0.492,2.145 0.688,1.469 0.725,0.963 0.762,0.461 0.664,-0.232 0.02,-0.271 c -0.642,-0.036 -0.838,0.64 -0.875,1.142 -0.038,0.506 0.059,1.199 0.703,1.234"
             inkscape:connector-curvature="0" /></g><g
           transform="translate(303.7637,406.6328)"
           id="g148"><path
             id="path150"
             style="fill:#44c8f5;fill-opacity:1;fill-rule:nonzero;stroke:none"
             d="M 0,0 C 0.339,0.02 0.331,0.561 0.312,0.803 0.296,1.049 0.211,1.582 -0.114,1.563 -0.44,1.545 -0.448,1.008 -0.429,0.762 -0.413,0.516 -0.341,-0.02 0,0 M -0.132,1.791 C 0.415,1.822 0.582,1.248 0.614,0.82 0.646,0.393 0.563,-0.197 0.015,-0.229 -0.532,-0.26 -0.699,0.314 -0.731,0.742 -0.761,1.17 -0.679,1.76 -0.132,1.791"
             inkscape:connector-curvature="0" /></g><g
           transform="translate(303.8096,405.7813)"
           id="g152"><path
             id="path154"
             style="fill:#8ad7f8;fill-opacity:1;fill-rule:nonzero;stroke:none"
             d="M 0,0 -0.285,-0.273 -0.448,-0.096 0.007,0.322 0.257,0.336 0.4,-1.609 0.116,-1.627 Z"
             inkscape:connector-curvature="0" /></g><g
           transform="translate(297.3428,404.3213)"
           id="g156"><path
             id="path158"
             style="fill:#8ad7f8;fill-opacity:1;fill-rule:nonzero;stroke:none"
             d="m 0,0 -0.18,-0.363 -0.197,0.111 0.295,0.561 0.219,0.101 0.67,-1.791 -0.25,-0.117 z"
             inkscape:connector-curvature="0" /></g><g
           transform="translate(299.7344,403.855)"
           id="g160"><path
             id="path162"
             style="fill:#8ad7f8;fill-opacity:1;fill-rule:nonzero;stroke:none"
             d="m 0,0 -0.224,-0.327 -0.18,0.143 0.362,0.503 0.23,0.063 0.434,-1.888 -0.264,-0.072 z"
             inkscape:connector-curvature="0" /></g><g
           transform="translate(307.3594,404.9268)"
           id="g164"><path
             id="path166"
             style="fill:#8ad7f8;fill-opacity:1;fill-rule:nonzero;stroke:none"
             d="M 0,0 -0.341,-0.176 -0.454,0.047 0.088,0.309 0.333,0.244 -0.015,-1.67 -0.292,-1.6 Z"
             inkscape:connector-curvature="0" /></g><g
           transform="translate(303.4541,410.5566)"
           id="g168"><path
             id="path170"
             style="fill:#00afef;fill-opacity:1;fill-rule:nonzero;stroke:none"
             d="M 0,0 -0.286,-0.273 -0.447,-0.096 0.008,0.322 0.257,0.336 0.401,-1.609 0.116,-1.627 Z"
             inkscape:connector-curvature="0" /></g><g
           transform="translate(304.1807,402.4141)"
           id="g172"><path
             id="path174"
             style="fill:#b1e3fa;fill-opacity:1;fill-rule:nonzero;stroke:none"
             d="M 0,0 C 0.275,0.018 0.269,0.453 0.255,0.654 0.238,0.855 0.17,1.291 -0.094,1.273 -0.36,1.256 -0.365,0.82 -0.352,0.619 -0.338,0.422 -0.277,-0.016 0,0 M -0.109,1.461 C 0.339,1.486 0.475,1.018 0.499,0.668 0.525,0.32 0.459,-0.162 0.01,-0.186 c -0.446,-0.027 -0.581,0.442 -0.608,0.791 -0.023,0.35 0.042,0.831 0.489,0.856"
             inkscape:connector-curvature="0" /></g><g
           transform="translate(309.665,418.8955)"
           id="g176"><path
             id="path178"
             style="fill:#213787;fill-opacity:1;fill-rule:nonzero;stroke:none"
             d="M 0,0 C 0.677,-0.084 0.914,0.98 0.991,1.465 1.07,1.959 1.151,3.037 0.499,3.119 -0.149,3.203 -0.413,2.146 -0.49,1.654 -0.571,1.168 -0.682,0.086 0,0 M 0.572,3.576 C 1.666,3.439 1.728,2.246 1.591,1.391 1.453,0.535 1.018,-0.6 -0.076,-0.457 -1.169,-0.32 -1.23,0.875 -1.094,1.73 c 0.137,0.856 0.575,1.987 1.666,1.846"
             inkscape:connector-curvature="0" /></g><g
           transform="translate(309.3877,417.4814)"
           id="g180"><path
             id="path182"
             style="fill:#1c4483;fill-opacity:1;fill-rule:nonzero;stroke:none"
             d="m 0,0 -0.547,-0.348 -0.19,0.328 0.872,0.524 0.4,-0.051 -0.5,-3.103 -0.451,0.058 z"
             inkscape:connector-curvature="0" /></g><g
           transform="translate(308.5518,411.9814)"
           id="g184"><path
             id="path186"
             style="fill:#0065aa;fill-opacity:1;fill-rule:nonzero;stroke:none"
             d="M 0,0 C 0.485,-0.061 0.652,0.701 0.709,1.049 0.766,1.402 0.823,2.176 0.359,2.232 -0.108,2.291 -0.295,1.539 -0.352,1.186 -0.409,0.836 -0.486,0.063 0,0 M 0.412,2.563 C 1.192,2.461 1.236,1.607 1.14,0.994 1.039,0.383 0.727,-0.426 -0.055,-0.328 c -0.781,0.099 -0.827,0.955 -0.728,1.568 0.099,0.612 0.411,1.418 1.195,1.323"
             inkscape:connector-curvature="0" /></g><g
           transform="translate(308.3096,410.7451)"
           id="g188"><path
             id="path190"
             style="fill:#00afef;fill-opacity:1;fill-rule:nonzero;stroke:none"
             d="m 0,0 -0.469,-0.299 -0.164,0.283 0.747,0.448 0.343,-0.043 -0.428,-2.66 -0.386,0.048 z"
             inkscape:connector-curvature="0" /></g><g
           transform="translate(307.7256,405.8994)"
           id="g192"><path
             id="path194"
             style="fill:#44c8f5;fill-opacity:1;fill-rule:nonzero;stroke:none"
             d="M 0,0 C 0.397,-0.051 0.535,0.572 0.58,0.857 0.626,1.145 0.676,1.773 0.294,1.824 -0.088,1.871 -0.24,1.256 -0.284,0.967 -0.332,0.684 -0.395,0.051 0,0 M 0.336,2.092 C 0.977,2.012 1.013,1.313 0.932,0.811 0.852,0.313 0.596,-0.35 -0.042,-0.268 c -0.638,0.082 -0.677,0.78 -0.594,1.28 0.081,0.498 0.335,1.16 0.972,1.08"
             inkscape:connector-curvature="0" /></g><g
           transform="translate(312.7607,405.0693)"
           id="g196"><path
             id="path198"
             style="fill:#00bef0;fill-opacity:1;fill-rule:nonzero;stroke:none"
             d="M 0,0 C 0.377,-0.147 0.635,0.428 0.735,0.695 0.836,0.963 1.01,1.564 0.647,1.707 0.284,1.847 0.014,1.283 -0.086,1.014 -0.188,0.748 -0.377,0.146 0,0 M 0.742,1.958 C 1.351,1.723 1.248,1.031 1.069,0.563 0.891,0.096 0.512,-0.488 -0.096,-0.252 c -0.605,0.238 -0.505,0.928 -0.326,1.395 0.179,0.466 0.56,1.048 1.164,0.815"
             inkscape:connector-curvature="0" /></g><g
           transform="translate(317.5273,424.8174)"
           id="g200"><path
             id="path202"
             style="fill:#00569b;fill-opacity:1;fill-rule:nonzero;stroke:none"
             d="M 0,0 -0.604,-0.266 -0.73,0.084 0.222,0.48 0.608,0.373 -0.441,-2.619 -0.877,-2.5 Z"
             inkscape:connector-curvature="0" /></g><g
           transform="translate(318.7988,429.0303)"
           id="g204"><path
             id="path206"
             style="fill:#213787;fill-opacity:1;fill-rule:nonzero;stroke:none"
             d="M 0,0 -0.73,-0.322 -0.885,0.102 0.269,0.58 0.736,0.449 -0.533,-3.172 -1.061,-3.027 Z"
             inkscape:connector-curvature="0" /></g><g
           transform="translate(315.7168,419.5068)"
           id="g208"><path
             id="path210"
             style="fill:#0078b5;fill-opacity:1;fill-rule:nonzero;stroke:none"
             d="M 0,0 C 0.466,-0.127 0.769,0.602 0.887,0.936 1.006,1.277 1.203,2.029 0.752,2.152 0.303,2.277 -0.018,1.559 -0.137,1.219 -0.255,0.883 -0.471,0.131 0,0 M 0.863,2.471 C 1.617,2.262 1.508,1.41 1.303,0.82 1.096,0.23 0.641,-0.523 -0.114,-0.316 c -0.754,0.209 -0.646,1.06 -0.438,1.65 0.208,0.59 0.659,1.344 1.415,1.137"
             inkscape:connector-curvature="0" /></g><g
           transform="translate(315.2549,418.3193)"
           id="g212"><path
             id="path214"
             style="fill:#0090d5;fill-opacity:1;fill-rule:nonzero;stroke:none"
             d="M 0,0 -0.515,-0.227 -0.628,0.074 0.189,0.41 0.521,0.32 -0.376,-2.246 -0.749,-2.143 Z"
             inkscape:connector-curvature="0" /></g><g
           transform="translate(313.8994,413.8779)"
           id="g216"><path
             id="path218"
             style="fill:#00afef;fill-opacity:1;fill-rule:nonzero;stroke:none"
             d="M 0,0 C 0.384,-0.105 0.633,0.488 0.728,0.762 0.824,1.041 0.984,1.656 0.618,1.758 0.251,1.859 -0.013,1.273 -0.108,0.994 -0.206,0.721 -0.382,0.105 0,0 M 0.708,2.016 C 1.323,1.846 1.235,1.152 1.065,0.668 0.896,0.188 0.527,-0.43 -0.09,-0.258 c -0.615,0.17 -0.525,0.863 -0.356,1.344 0.168,0.482 0.539,1.102 1.154,0.93"
             inkscape:connector-curvature="0" /></g><g
           transform="translate(313.0557,411.4697)"
           id="g220"><path
             id="path222"
             style="fill:#44c8f5;fill-opacity:1;fill-rule:nonzero;stroke:none"
             d="M 0,0 C 0.35,-0.098 0.573,0.441 0.659,0.691 0.747,0.943 0.894,1.5 0.561,1.592 0.227,1.684 -0.009,1.152 -0.099,0.898 -0.185,0.65 -0.347,0.096 0,0 M 0.642,1.826 C 1.198,1.67 1.12,1.041 0.965,0.605 0.811,0.168 0.478,-0.393 -0.083,-0.238 -0.64,-0.082 -0.561,0.547 -0.406,0.984 -0.251,1.422 0.083,1.98 0.642,1.826"
             inkscape:connector-curvature="0" /></g><g
           transform="translate(312.25,409.1689)"
           id="g224"><path
             id="path226"
             style="fill:#8ad7f8;fill-opacity:1;fill-rule:nonzero;stroke:none"
             d="M 0,0 C 0.326,-0.09 0.535,0.416 0.617,0.648 0.698,0.883 0.836,1.406 0.524,1.492 0.213,1.58 -0.012,1.082 -0.093,0.846 -0.176,0.611 -0.324,0.09 0,0 M 0.6,1.713 C 1.125,1.566 1.049,0.979 0.904,0.568 0.762,0.158 0.447,-0.363 -0.078,-0.219 -0.601,-0.076 -0.525,0.514 -0.379,0.924 -0.236,1.334 0.078,1.857 0.6,1.713"
             inkscape:connector-curvature="0" /></g><g
           transform="translate(318.2197,417.0713)"
           id="g228"><path
             id="path230"
             style="fill:#213787;fill-opacity:1;fill-rule:nonzero;stroke:none"
             d="M 0,0 C 0.647,-0.191 1.11,0.822 1.29,1.287 1.476,1.76 1.787,2.812 1.167,2.994 0.546,3.177 0.06,2.178 -0.122,1.707 -0.306,1.239 -0.648,0.191 0,0 M 1.338,3.433 C 2.381,3.126 2.183,1.941 1.863,1.12 1.543,0.299 0.872,-0.749 -0.173,-0.439 c -1.041,0.307 -0.843,1.492 -0.523,2.313 0.321,0.821 0.992,1.869 2.034,1.559"
             inkscape:connector-curvature="0" /></g><g
           transform="translate(317.54,415.8115)"
           id="g232"><path
             id="path234"
             style="fill:#00569b;fill-opacity:1;fill-rule:nonzero;stroke:none"
             d="m 0,0 -0.631,-0.215 -0.088,0.36 0.99,0.312 0.374,-0.141 -1.37,-2.888 -0.418,0.156 z"
             inkscape:connector-curvature="0" /></g><g
           transform="translate(315.1611,410.6787)"
           id="g236"><path
             id="path238"
             style="fill:#0078b5;fill-opacity:1;fill-rule:nonzero;stroke:none"
             d="M 0,0 C 0.454,-0.168 0.834,0.533 0.986,0.855 1.141,1.184 1.417,1.918 0.984,2.078 0.549,2.24 0.153,1.553 -0.002,1.225 -0.156,0.9 -0.451,0.17 0,0 M 1.129,2.387 C 1.858,2.113 1.656,1.275 1.387,0.705 1.117,0.135 0.582,-0.576 -0.144,-0.307 c -0.729,0.274 -0.529,1.112 -0.258,1.682 0.271,0.57 0.801,1.281 1.531,1.012"
             inkscape:connector-curvature="0" /></g><g
           transform="translate(314.5332,409.5557)"
           id="g240"><path
             id="path242"
             style="fill:#00afef;fill-opacity:1;fill-rule:nonzero;stroke:none"
             d="M 0,0 -0.532,-0.201 -0.621,0.105 0.219,0.4 0.545,0.291 -0.546,-2.224 -0.909,-2.101 Z"
             inkscape:connector-curvature="0" /></g><g
           transform="translate(325.2773,407.459)"
           id="g244"><path
             id="path246"
             style="fill:#0065aa;fill-opacity:1;fill-rule:nonzero;stroke:none"
             d="M 0,0 C 0.286,-0.354 1.021,0.068 1.345,0.273 1.673,0.479 2.344,0.978 2.074,1.317 1.799,1.658 1.054,1.255 0.728,1.045 0.404,0.841 -0.281,0.355 0,0 M 2.378,1.51 C 2.833,0.94 2.164,0.321 1.597,-0.043 1.027,-0.401 0.151,-0.761 -0.305,-0.193 -0.759,0.377 -0.093,0.998 0.476,1.36 1.045,1.72 1.92,2.082 2.378,1.51"
             inkscape:connector-curvature="0" /></g><g
           transform="translate(328.0693,409.4829)"
           id="g248"><path
             id="path250"
             style="fill:#213787;fill-opacity:1;fill-rule:nonzero;stroke:none"
             d="M 0,0 C 0.315,-0.39 1.127,0.075 1.482,0.302 1.844,0.529 2.585,1.078 2.287,1.452 1.983,1.828 1.162,1.384 0.804,1.153 0.446,0.928 -0.31,0.391 0,0 M 2.623,1.666 C 3.125,1.037 2.388,0.354 1.76,-0.046 1.133,-0.442 0.166,-0.839 -0.337,-0.212 -0.836,0.416 -0.103,1.101 0.525,1.5 1.153,1.896 2.116,2.295 2.623,1.666"
             inkscape:connector-curvature="0" /></g><g
           transform="translate(324.2969,406.6738)"
           id="g252"><path
             id="path254"
             style="fill:#0078b5;fill-opacity:1;fill-rule:nonzero;stroke:none"
             d="m 0,0 -0.563,0.111 0.126,0.297 0.875,-0.195 0.193,-0.256 -2.519,-1.49 -0.215,0.289 z"
             inkscape:connector-curvature="0" /></g><g
           transform="translate(320.0938,403.9824)"
           id="g256"><path
             id="path258"
             style="fill:#0090d5;fill-opacity:1;fill-rule:nonzero;stroke:none"
             d="M 0,0 C 0.224,-0.297 0.835,0.025 1.106,0.186 1.378,0.348 1.938,0.734 1.727,1.02 1.514,1.305 0.894,0.994 0.62,0.832 0.352,0.674 -0.222,0.295 0,0 M 1.979,1.17 C 2.337,0.691 1.775,0.203 1.301,-0.078 0.83,-0.357 0.105,-0.629 -0.253,-0.15 -0.61,0.326 -0.049,0.816 0.424,1.096 0.896,1.375 1.622,1.648 1.979,1.17"
             inkscape:connector-curvature="0" /></g><g
           transform="translate(317.7295,402.584)"
           id="g260"><path
             id="path262"
             style="fill:#00bef0;fill-opacity:1;fill-rule:nonzero;stroke:none"
             d="M 0,0 C 0.202,-0.27 0.76,0.023 1.004,0.168 1.25,0.314 1.758,0.666 1.564,0.924 1.371,1.182 0.813,0.9 0.563,0.754 0.32,0.611 -0.2,0.27 0,0 M 1.795,1.061 C 2.118,0.629 1.61,0.184 1.18,-0.068 0.751,-0.322 0.096,-0.57 -0.23,-0.135 -0.554,0.297 -0.045,0.74 0.383,0.992 0.813,1.246 1.47,1.49 1.795,1.061"
             inkscape:connector-curvature="0" /></g><g
           transform="translate(269.998,402.2656)"
           id="g264"><path
             id="path266"
             style="fill:#213787;fill-opacity:1;fill-rule:nonzero;stroke:none"
             d="M 0,0 C 0.309,0.564 -0.901,1.023 -1.462,1.209 -2.028,1.395 -3.303,1.722 -3.599,1.181 -3.896,0.639 -2.703,0.156 -2.137,-0.027 -1.576,-0.213 -0.308,-0.568 0,0 m -4.125,1.354 c 0.495,0.912 1.948,0.678 2.935,0.353 0.988,-0.324 2.218,-0.971 1.718,-1.882 -0.495,-0.911 -1.95,-0.679 -2.938,-0.352 -0.986,0.322 -2.214,0.97 -1.715,1.881"
             inkscape:connector-curvature="0" /></g><g
           transform="translate(260.8125,398.2837)"
           id="g268"><path
             id="path270"
             style="fill:#213787;fill-opacity:1;fill-rule:nonzero;stroke:none"
             d="m 0,0 c 0.206,0.606 -1.063,0.848 -1.646,0.931 -0.589,0.086 -1.896,0.184 -2.093,-0.4 -0.196,-0.585 1.058,-0.848 1.646,-0.932 C -1.511,-0.482 -0.202,-0.612 0,0 m -4.288,0.607 c 0.328,0.982 1.799,1.006 2.822,0.86 1.027,-0.147 2.348,-0.568 2.018,-1.55 -0.329,-0.98 -1.801,-1.005 -2.826,-0.859 -1.025,0.145 -2.344,0.568 -2.014,1.549"
             inkscape:connector-curvature="0" /></g><g
           transform="translate(271.6162,401.6895)"
           id="g272"><path
             id="path274"
             style="fill:#00569b;fill-opacity:1;fill-rule:nonzero;stroke:none"
             d="M 0,0 0.254,-0.557 -0.198,-0.643 -0.568,0.234 -0.384,0.57 3.195,-0.607 2.99,-0.981 Z"
             inkscape:connector-curvature="0" /></g><g
           transform="translate(279.2461,399.2021)"
           id="g276"><path
             id="path278"
             style="fill:#00bef0;fill-opacity:1;fill-rule:nonzero;stroke:none"
             d="M 0,0 0.217,-0.373 -0.087,-0.445 -0.409,0.147 -0.31,0.377 2.239,-0.337 2.128,-0.599 Z"
             inkscape:connector-curvature="0" /></g><g
           transform="translate(286.2051,377.7627)"
           id="g280"><path
             id="path282"
             style="fill:#e3e3e3;fill-opacity:1;fill-rule:nonzero;stroke:none"
             d="m 0,0 c -0.336,-0.08 -0.697,-0.145 -1.047,-0.145 -1.486,0 -2.517,0.741 -2.517,2.293 0,1.575 0.959,2.454 2.517,2.454 0.303,0 0.705,-0.059 1.039,-0.19 L -0.074,3.637 c -0.348,0.197 -0.664,0.242 -0.992,0.242 -0.948,0 -1.539,-0.723 -1.539,-1.662 0,-0.936 0.58,-1.641 1.558,-1.641 0.361,0 0.789,0.082 1.006,0.192 z"
             inkscape:connector-curvature="0" /></g><g
           transform="translate(287.0137,382.2861)"
           id="g284"><path
             id="path286"
             style="fill:#e3e3e3;fill-opacity:1;fill-rule:nonzero;stroke:none"
             d="M 0,0 H 2.709 V -0.725 H 0.92 V -1.854 H 2.557 V -2.576 H 0.92 V -3.865 H 2.721 V -4.59 H 0 Z"
             inkscape:connector-curvature="0" /></g><g
           transform="translate(290.7539,382.2861)"
           id="g288"><path
             id="path290"
             style="fill:#e3e3e3;fill-opacity:1;fill-rule:nonzero;stroke:none"
             d="m 0,0 h 1.131 l 1.75,-3.434 H 2.893 V 0 h 0.88 V -4.59 H 2.65 L 0.895,-1.156 H 0.881 V -4.59 H 0 Z"
             inkscape:connector-curvature="0" /></g><g
           transform="translate(296.5137,381.5615)"
           id="g292"><path
             id="path294"
             style="fill:#e3e3e3;fill-opacity:1;fill-rule:nonzero;stroke:none"
             d="m 0,0 h -1.314 v 0.725 h 3.55 V 0 H 0.92 V -3.865 H 0 Z"
             inkscape:connector-curvature="0" /></g><g
           transform="translate(300.3086,380.3252)"
           id="g296"><path
             id="path298"
             style="fill:#e3e3e3;fill-opacity:1;fill-rule:nonzero;stroke:none"
             d="m 0,0 h 0.301 c 0.455,0 0.974,0.066 0.974,0.641 0,0.552 -0.513,0.595 -0.974,0.595 H 0 Z M -0.922,1.961 H 0.07 c 0.987,0 2.166,0.033 2.166,-1.244 0,-0.539 -0.363,-0.985 -0.949,-1.063 v -0.013 c 0.25,-0.02 0.395,-0.27 0.488,-0.475 L 2.51,-2.629 H 1.484 l -0.55,1.434 c -0.133,0.341 -0.25,0.474 -0.637,0.474 H 0 v -1.908 h -0.922 z"
             inkscape:connector-curvature="0" /></g><g
           transform="translate(303.6152,382.2861)"
           id="g300"><path
             id="path302"
             style="fill:#e3e3e3;fill-opacity:1;fill-rule:nonzero;stroke:none"
             d="M 0,0 H 2.709 V -0.725 H 0.922 V -1.854 H 2.557 V -2.576 H 0.922 V -3.865 H 2.723 V -4.59 H 0 Z"
             inkscape:connector-curvature="0" /></g><g
           transform="translate(310.2813,378.4209)"
           id="g304"><path
             id="path306"
             style="fill:#e3e3e3;fill-opacity:1;fill-rule:nonzero;stroke:none"
             d="m 0,0 h 0.516 c 0.767,0 1.509,0.572 1.509,1.57 0,1 -0.742,1.571 -1.509,1.571 H 0 Z m -0.92,3.865 h 1.258 c 1.406,0 2.648,-0.472 2.648,-2.295 0,-1.82 -1.242,-2.295 -2.648,-2.295 H -0.92 Z"
             inkscape:connector-curvature="0" /></g><g
           transform="translate(314.2422,382.2861)"
           id="g308"><path
             id="path310"
             style="fill:#e3e3e3;fill-opacity:1;fill-rule:nonzero;stroke:none"
             d="M 0,0 H 2.707 V -0.725 H 0.918 V -1.854 H 2.555 V -2.576 H 0.918 V -3.865 H 2.721 V -4.59 H 0 Z"
             inkscape:connector-curvature="0" /></g><g
           transform="translate(320.8301,380.3252)"
           id="g312"><path
             id="path314"
             style="fill:#e3e3e3;fill-opacity:1;fill-rule:nonzero;stroke:none"
             d="m 0,0 h 0.301 c 0.453,0 0.972,0.066 0.972,0.641 0,0.552 -0.513,0.595 -0.972,0.595 H 0 Z m -0.924,1.961 h 0.996 c 0.987,0 2.164,0.033 2.164,-1.244 0,-0.539 -0.365,-0.985 -0.951,-1.063 v -0.013 c 0.252,-0.02 0.397,-0.27 0.488,-0.475 L 2.512,-2.629 H 1.484 L 0.932,-1.195 C 0.801,-0.854 0.684,-0.721 0.295,-0.721 H 0 v -1.908 h -0.924 z"
             inkscape:connector-curvature="0" /></g><g
           transform="translate(324.1367,382.2861)"
           id="g316"><path
             id="path318"
             style="fill:#e3e3e3;fill-opacity:1;fill-rule:nonzero;stroke:none"
             d="M 0,0 H 2.709 V -0.725 H 0.92 V -1.854 H 2.559 V -2.576 H 0.92 V -3.865 H 2.721 V -4.59 H 0 Z"
             inkscape:connector-curvature="0" /></g><g
           transform="translate(331.2637,377.7627)"
           id="g320"><path
             id="path322"
             style="fill:#e3e3e3;fill-opacity:1;fill-rule:nonzero;stroke:none"
             d="m 0,0 c -0.336,-0.08 -0.697,-0.145 -1.045,-0.145 -1.486,0 -2.518,0.741 -2.518,2.293 0,1.575 0.959,2.454 2.518,2.454 0.301,0 0.703,-0.059 1.039,-0.19 L -0.072,3.637 c -0.35,0.197 -0.664,0.242 -0.992,0.242 -0.948,0 -1.54,-0.723 -1.54,-1.662 0,-0.936 0.579,-1.641 1.559,-1.641 0.361,0 0.787,0.082 1.006,0.192 z"
             inkscape:connector-curvature="0" /></g><g
           transform="translate(332.0742,382.2861)"
           id="g324"><path
             id="path326"
             style="fill:#e3e3e3;fill-opacity:1;fill-rule:nonzero;stroke:none"
             d="m 0,0 h 0.918 v -1.854 h 1.84 V 0 H 3.682 V -4.59 H 2.758 v 2.014 H 0.918 V -4.59 H 0 Z"
             inkscape:connector-curvature="0" /></g><g
           transform="translate(336.9512,382.2861)"
           id="g328"><path
             id="path330"
             style="fill:#e3e3e3;fill-opacity:1;fill-rule:nonzero;stroke:none"
             d="M 0,0 H 2.709 V -0.725 H 0.92 V -1.854 H 2.557 V -2.576 H 0.92 V -3.865 H 2.723 V -4.59 H 0 Z"
             inkscape:connector-curvature="0" /></g><g
           transform="translate(341.5801,380.3252)"
           id="g332"><path
             id="path334"
             style="fill:#e3e3e3;fill-opacity:1;fill-rule:nonzero;stroke:none"
             d="m 0,0 h 0.303 c 0.451,0 0.97,0.066 0.97,0.641 0,0.552 -0.511,0.595 -0.97,0.595 H 0 Z m -0.92,1.961 h 0.992 c 0.987,0 2.162,0.033 2.162,-1.244 0,-0.539 -0.359,-0.985 -0.945,-1.063 v -0.013 c 0.25,-0.02 0.395,-0.27 0.486,-0.475 L 2.514,-2.629 H 1.488 l -0.554,1.434 c -0.131,0.341 -0.25,0.474 -0.639,0.474 H 0 v -1.908 h -0.92 z"
             inkscape:connector-curvature="0" /></g><g
           transform="translate(348.2285,377.7627)"
           id="g336"><path
             id="path338"
             style="fill:#e3e3e3;fill-opacity:1;fill-rule:nonzero;stroke:none"
             d="m 0,0 c -0.336,-0.08 -0.699,-0.145 -1.047,-0.145 -1.486,0 -2.519,0.741 -2.519,2.293 0,1.575 0.961,2.454 2.519,2.454 0.303,0 0.703,-0.059 1.039,-0.19 L -0.074,3.637 c -0.35,0.197 -0.664,0.242 -0.992,0.242 -0.946,0 -1.539,-0.723 -1.539,-1.662 0,-0.936 0.578,-1.641 1.558,-1.641 0.361,0 0.791,0.082 1.006,0.192 z"
             inkscape:connector-curvature="0" /></g><g
           transform="translate(349.0371,382.2861)"
           id="g340"><path
             id="path342"
             style="fill:#e3e3e3;fill-opacity:1;fill-rule:nonzero;stroke:none"
             d="M 0,0 H 0.92 V -1.854 H 2.762 V 0 h 0.92 v -4.59 h -0.92 v 2.014 H 0.92 V -4.59 H 0 Z"
             inkscape:connector-curvature="0" /></g><g
           transform="translate(353.916,382.2861)"
           id="g344"><path
             id="path346"
             style="fill:#e3e3e3;fill-opacity:1;fill-rule:nonzero;stroke:none"
             d="M 0,0 H 2.707 V -0.725 H 0.92 V -1.854 H 2.557 V -2.576 H 0.92 V -3.865 H 2.721 V -4.59 H 0 Z"
             inkscape:connector-curvature="0" /></g><g
           transform="translate(282.8633,374.3955)"
           id="g348"><path
             id="path350"
             style="fill:#e3e3e3;fill-opacity:1;fill-rule:nonzero;stroke:none"
             d="M 0,0 H 2.709 V -0.723 H 0.922 V -1.854 H 2.559 V -2.578 H 0.922 V -3.865 H 2.723 V -4.588 H 0 Z"
             inkscape:connector-curvature="0" /></g><g
           transform="translate(286.4727,374.3955)"
           id="g352"><path
             id="path354"
             style="fill:#e3e3e3;fill-opacity:1;fill-rule:nonzero;stroke:none"
             d="M 0,0 H 1.133 L 2.881,-3.434 H 2.895 V 0 H 3.773 V -4.588 H 2.65 L 0.895,-1.156 H 0.881 V -4.588 H 0 Z"
             inkscape:connector-curvature="0" /></g><g
           transform="translate(294.0156,370.5303)"
           id="g356"><path
             id="path358"
             style="fill:#e3e3e3;fill-opacity:1;fill-rule:nonzero;stroke:none"
             d="m 0,0 h 0.512 c 0.769,0 1.511,0.57 1.511,1.57 0,1 -0.742,1.573 -1.511,1.573 H 0 Z m -0.922,3.865 h 1.258 c 1.406,0 2.648,-0.474 2.648,-2.295 0,-1.82 -1.242,-2.293 -2.648,-2.293 h -1.258 z"
             inkscape:connector-curvature="0" /></g><g
           transform="translate(299.8652,370.4502)"
           id="g360"><path
             id="path362"
             style="fill:#e3e3e3;fill-opacity:1;fill-rule:nonzero;stroke:none"
             d="M 0,0 C 0.941,0 1.291,0.834 1.291,1.664 1.291,2.473 0.916,3.301 0,3.301 -0.912,3.301 -1.287,2.473 -1.287,1.664 -1.287,0.834 -0.939,0 0,0 m 0,4.023 c 1.443,0 2.25,-0.97 2.25,-2.359 0,-1.387 -0.795,-2.387 -2.25,-2.387 -1.471,0 -2.246,0.979 -2.246,2.387 0,1.408 0.789,2.359 2.246,2.359"
             inkscape:connector-curvature="0" /></g><g
           transform="translate(302.9121,374.3955)"
           id="g364"><path
             id="path366"
             style="fill:#e3e3e3;fill-opacity:1;fill-rule:nonzero;stroke:none"
             d="M 0,0 H 1.131 L 2.879,-3.434 H 2.893 V 0 h 0.88 V -4.588 H 2.648 L 0.893,-1.156 H 0.881 V -4.588 H 0 Z"
             inkscape:connector-curvature="0" /></g><g
           transform="translate(307.6582,374.3955)"
           id="g368"><path
             id="path370"
             style="fill:#e3e3e3;fill-opacity:1;fill-rule:nonzero;stroke:none"
             d="M 0,0 H 1.131 L 2.879,-3.434 H 2.895 V 0 h 0.88 V -4.588 H 2.65 L 0.893,-1.156 H 0.883 V -4.588 H 0 Z"
             inkscape:connector-curvature="0" /></g><g
           transform="translate(313.7539,375.6514)"
           id="g372"><path
             id="path374"
             style="fill:#e3e3e3;fill-opacity:1;fill-rule:nonzero;stroke:none"
             d="M 0,0 H 0.9 L 0,-0.959 h -0.545 z m -1.301,-1.256 h 2.707 v -0.723 h -1.787 v -1.13 H 1.256 V -3.834 H -0.381 V -5.121 H 1.42 v -0.723 h -2.721 z"
             inkscape:connector-curvature="0" /></g><g
           transform="translate(316.1094,374.3955)"
           id="g376"><path
             id="path378"
             style="fill:#e3e3e3;fill-opacity:1;fill-rule:nonzero;stroke:none"
             d="M 0,0 H 2.707 V -0.723 H 0.92 V -1.854 H 2.555 V -2.578 H 0.92 V -3.865 H 2.721 V -4.588 H 0 Z"
             inkscape:connector-curvature="0" /></g><g
           transform="translate(322.2305,373.5537)"
           id="g380"><path
             id="path382"
             style="fill:#e3e3e3;fill-opacity:1;fill-rule:nonzero;stroke:none"
             d="m 0,0 c -0.291,0.125 -0.611,0.197 -0.934,0.197 -0.318,0 -0.724,-0.136 -0.724,-0.638 0,-0.793 2.013,-0.459 2.013,-1.997 0,-1.007 -0.798,-1.388 -1.724,-1.388 -0.5,0 -0.725,0.064 -1.178,0.178 l 0.086,0.828 c 0.316,-0.17 0.678,-0.284 1.039,-0.284 0.35,0 0.815,0.178 0.815,0.592 0,0.875 -2.01,0.512 -2.01,2.033 0,1.026 0.795,1.399 1.603,1.399 0.395,0 0.764,-0.051 1.096,-0.164 z"
             inkscape:connector-curvature="0" /></g><g
           transform="translate(325.248,374.3955)"
           id="g384"><path
             id="path386"
             style="fill:#e3e3e3;fill-opacity:1;fill-rule:nonzero;stroke:none"
             d="M 0,0 H 1.473 L 2.564,-3.479 H 2.576 L 3.668,0 H 5.141 V -4.588 H 4.26 v 3.787 H 4.248 L 3.01,-4.588 H 2.131 L 0.895,-0.801 0.879,-0.816 V -4.588 H 0 Z"
             inkscape:connector-curvature="0" /></g><g
           transform="translate(333.2754,373.4756)"
           id="g388"><path
             id="path390"
             style="fill:#e3e3e3;fill-opacity:1;fill-rule:nonzero;stroke:none"
             d="M 0,0 H -0.014 L -0.678,-1.893 H 0.666 Z M -0.506,0.92 H 0.533 L 2.334,-3.668 H 1.314 L 0.92,-2.617 h -1.859 l -0.403,-1.051 h -0.953 z"
             inkscape:connector-curvature="0" /></g><g
           transform="translate(338.666,373.5537)"
           id="g392"><path
             id="path394"
             style="fill:#e3e3e3;fill-opacity:1;fill-rule:nonzero;stroke:none"
             d="m 0,0 c -0.289,0.125 -0.611,0.197 -0.934,0.197 -0.316,0 -0.722,-0.136 -0.722,-0.638 0,-0.793 2.011,-0.459 2.011,-1.997 0,-1.007 -0.796,-1.388 -1.722,-1.388 -0.498,0 -0.725,0.064 -1.178,0.178 l 0.088,0.828 c 0.314,-0.17 0.676,-0.284 1.037,-0.284 0.35,0 0.815,0.178 0.815,0.592 0,0.875 -2.01,0.512 -2.01,2.033 0,1.026 0.797,1.399 1.603,1.399 0.395,0 0.764,-0.051 1.098,-0.164 z"
             inkscape:connector-curvature="0" /></g><g
           transform="translate(342.3223,373.5537)"
           id="g396"><path
             id="path398"
             style="fill:#e3e3e3;fill-opacity:1;fill-rule:nonzero;stroke:none"
             d="m 0,0 c -0.287,0.125 -0.609,0.197 -0.934,0.197 -0.314,0 -0.724,-0.136 -0.724,-0.638 0,-0.793 2.012,-0.459 2.012,-1.997 0,-1.007 -0.793,-1.388 -1.721,-1.388 -0.5,0 -0.723,0.064 -1.176,0.178 l 0.084,0.828 c 0.316,-0.17 0.678,-0.284 1.039,-0.284 0.348,0 0.816,0.178 0.816,0.592 0,0.875 -2.013,0.512 -2.013,2.033 0,1.026 0.799,1.399 1.603,1.399 0.395,0 0.764,-0.051 1.1,-0.164 z"
             inkscape:connector-curvature="0" /></g><path
           id="path400"
           style="fill:#e3e3e3;fill-opacity:1;fill-rule:nonzero;stroke:none"
           d="m 343.434,374.396 h 0.92 v -4.588 h -0.92 z"
           inkscape:connector-curvature="0" /><g
           transform="translate(344.875,374.3955)"
           id="g402"><path
             id="path404"
             style="fill:#e3e3e3;fill-opacity:1;fill-rule:nonzero;stroke:none"
             d="M 0,0 H 0.986 L 2.162,-3.604 H 2.174 L 3.338,0 H 4.252 L 2.707,-4.588 H 1.576 Z"
             inkscape:connector-curvature="0" /></g><g
           transform="translate(349.7266,374.3955)"
           id="g406"><path
             id="path408"
             style="fill:#e3e3e3;fill-opacity:1;fill-rule:nonzero;stroke:none"
             d="M 0,0 H 2.711 V -0.723 H 0.92 V -1.854 H 2.557 V -2.578 H 0.92 V -3.865 H 2.723 V -4.588 H 0 Z"
             inkscape:connector-curvature="0" /></g><g
           transform="translate(355.8477,373.5537)"
           id="g410"><path
             id="path412"
             style="fill:#e3e3e3;fill-opacity:1;fill-rule:nonzero;stroke:none"
             d="m 0,0 c -0.291,0.125 -0.611,0.197 -0.934,0.197 -0.316,0 -0.722,-0.136 -0.722,-0.638 0,-0.793 2.011,-0.459 2.011,-1.997 0,-1.007 -0.798,-1.388 -1.722,-1.388 -0.502,0 -0.723,0.064 -1.178,0.178 l 0.086,0.828 c 0.314,-0.17 0.678,-0.284 1.039,-0.284 0.35,0 0.815,0.178 0.815,0.592 0,0.875 -2.012,0.512 -2.012,2.033 0,1.026 0.797,1.399 1.603,1.399 0.397,0 0.766,-0.051 1.098,-0.164 z"
             inkscape:connector-curvature="0" /></g><g
           transform="translate(283.7852,362.6396)"
           id="g414"><path
             id="path416"
             style="fill:#e3e3e3;fill-opacity:1;fill-rule:nonzero;stroke:none"
             d="m 0,0 h 0.512 c 0.769,0 1.511,0.572 1.511,1.572 0,1 -0.742,1.571 -1.511,1.571 H 0 Z m -0.922,3.865 h 1.256 c 1.406,0 2.65,-0.472 2.65,-2.293 0,-1.82 -1.244,-2.297 -2.65,-2.297 h -1.256 z"
             inkscape:connector-curvature="0" /></g><g
           transform="translate(287.6777,366.5049)"
           id="g418"><path
             id="path420"
             style="fill:#e3e3e3;fill-opacity:1;fill-rule:nonzero;stroke:none"
             d="M 0,0 H 2.707 V -0.723 H 0.92 V -1.852 H 2.557 V -2.576 H 0.92 V -3.865 H 2.721 V -4.59 H 0 Z"
             inkscape:connector-curvature="0" /></g><g
           transform="translate(293.291,366.5049)"
           id="g422"><path
             id="path424"
             style="fill:#e3e3e3;fill-opacity:1;fill-rule:nonzero;stroke:none"
             d="M 0,0 H 0.922 V -3.865 H 2.703 V -4.59 H 0 Z"
             inkscape:connector-curvature="0" /></g><g
           transform="translate(296.2695,366.5049)"
           id="g426"><path
             id="path428"
             style="fill:#e3e3e3;fill-opacity:1;fill-rule:nonzero;stroke:none"
             d="M 0,0 H 0.961 L 0.355,-1.643 H -0.42 Z"
             inkscape:connector-curvature="0" /></g><g
           transform="translate(298.0195,366.5049)"
           id="g430"><path
             id="path432"
             style="fill:#e3e3e3;fill-opacity:1;fill-rule:nonzero;stroke:none"
             d="m 0,0 h 0.92 v -2.648 c 0,-0.784 0.252,-1.297 0.953,-1.297 0.705,0 0.955,0.513 0.955,1.297 V 0 h 0.92 V -2.932 C 3.748,-4.16 3.053,-4.668 1.873,-4.668 0.697,-4.668 0,-4.16 0,-2.932 Z"
             inkscape:connector-curvature="0" /></g><g
           transform="translate(302.8184,366.5049)"
           id="g434"><path
             id="path436"
             style="fill:#e3e3e3;fill-opacity:1;fill-rule:nonzero;stroke:none"
             d="m 0,0 h 1.135 l 1.748,-3.432 h 0.01 V 0 h 0.88 V -4.59 H 2.65 L 0.896,-1.156 H 0.881 V -4.59 H 0 Z"
             inkscape:connector-curvature="0" /></g><path
           id="path438"
           style="fill:#e3e3e3;fill-opacity:1;fill-rule:nonzero;stroke:none"
           d="m 307.6,366.505 h 0.922 v -4.59 H 307.6 Z"
           inkscape:connector-curvature="0" /><g
           transform="translate(309.1055,366.5049)"
           id="g440"><path
             id="path442"
             style="fill:#e3e3e3;fill-opacity:1;fill-rule:nonzero;stroke:none"
             d="M 0,0 H 0.986 L 2.162,-3.602 H 2.176 L 3.34,0 H 4.254 L 2.707,-4.59 H 1.578 Z"
             inkscape:connector-curvature="0" /></g><g
           transform="translate(314.0234,366.5049)"
           id="g444"><path
             id="path446"
             style="fill:#e3e3e3;fill-opacity:1;fill-rule:nonzero;stroke:none"
             d="M 0,0 H 2.709 V -0.723 H 0.922 V -1.852 H 2.559 V -2.576 H 0.922 V -3.865 H 2.721 V -4.59 H 0 Z"
             inkscape:connector-curvature="0" /></g><g
           transform="translate(318.5859,364.5459)"
           id="g448"><path
             id="path450"
             style="fill:#e3e3e3;fill-opacity:1;fill-rule:nonzero;stroke:none"
             d="m 0,0 h 0.303 c 0.453,0 0.974,0.066 0.974,0.639 0,0.55 -0.513,0.597 -0.974,0.597 H 0 Z m -0.92,1.959 h 0.992 c 0.987,0 2.162,0.033 2.162,-1.242 0,-0.539 -0.359,-0.987 -0.945,-1.065 v -0.013 c 0.25,-0.02 0.397,-0.27 0.486,-0.473 L 2.512,-2.631 H 1.486 l -0.552,1.434 c -0.131,0.342 -0.25,0.474 -0.637,0.474 H 0 v -1.908 h -0.92 z"
             inkscape:connector-curvature="0" /></g><g
           transform="translate(324.293,365.665)"
           id="g452"><path
             id="path454"
             style="fill:#e3e3e3;fill-opacity:1;fill-rule:nonzero;stroke:none"
             d="m 0,0 c -0.287,0.123 -0.611,0.195 -0.934,0.195 -0.314,0 -0.72,-0.136 -0.72,-0.636 0,-0.797 2.009,-0.461 2.009,-2 0,-1.004 -0.794,-1.387 -1.722,-1.387 -0.5,0 -0.723,0.066 -1.176,0.18 l 0.084,0.828 c 0.316,-0.172 0.68,-0.285 1.039,-0.285 0.35,0 0.816,0.177 0.816,0.591 0,0.877 -2.011,0.514 -2.011,2.034 0,1.025 0.795,1.398 1.603,1.398 0.395,0 0.762,-0.051 1.096,-0.162 z"
             inkscape:connector-curvature="0" /></g><path
           id="path456"
           style="fill:#e3e3e3;fill-opacity:1;fill-rule:nonzero;stroke:none"
           d="m 325.473,366.505 h 0.92 v -4.59 h -0.92 z"
           inkscape:connector-curvature="0" /><g
           transform="translate(328.2773,365.7822)"
           id="g458"><path
             id="path460"
             style="fill:#e3e3e3;fill-opacity:1;fill-rule:nonzero;stroke:none"
             d="m 0,0 h -1.316 v 0.723 h 3.55 V 0 H 0.922 V -3.867 H 0 Z"
             inkscape:connector-curvature="0" /></g><g
           transform="translate(332.4668,367.7627)"
           id="g462"><path
             id="path464"
             style="fill:#e3e3e3;fill-opacity:1;fill-rule:nonzero;stroke:none"
             d="M 0,0 H 0.898 L 0,-0.961 H -0.545 Z M -1.301,-1.258 H 1.406 V -1.98 H -0.381 V -3.109 H 1.256 V -3.834 H -0.381 V -5.123 H 1.42 v -0.725 h -2.721 z"
             inkscape:connector-curvature="0" /></g><g
           transform="translate(336.7813,366.5049)"
           id="g466"><path
             id="path468"
             style="fill:#e3e3e3;fill-opacity:1;fill-rule:nonzero;stroke:none"
             d="M 0,0 H 0.918 V -3.865 H 2.701 V -4.59 H 0 Z"
             inkscape:connector-curvature="0" /></g><g
           transform="translate(341.9551,365.585)"
           id="g470"><path
             id="path472"
             style="fill:#e3e3e3;fill-opacity:1;fill-rule:nonzero;stroke:none"
             d="m 0,0 h -0.014 l -0.664,-1.895 h 1.34 z M -0.506,0.92 H 0.533 L 2.334,-3.67 H 1.316 L 0.92,-2.617 H -0.939 L -1.34,-3.67 h -0.955 z"
             inkscape:connector-curvature="0" /></g><g
           transform="translate(344.1523,366.5049)"
           id="g474"><path
             id="path476"
             style="fill:#e3e3e3;fill-opacity:1;fill-rule:nonzero;stroke:none"
             d="M 0,0 H 0.986 L 2.162,-3.602 H 2.176 L 3.34,0 H 4.254 L 2.709,-4.59 H 1.578 Z"
             inkscape:connector-curvature="0" /></g><g
           transform="translate(350.4063,365.585)"
           id="g478"><path
             id="path480"
             style="fill:#e3e3e3;fill-opacity:1;fill-rule:nonzero;stroke:none"
             d="M 0,0 H -0.014 L -0.678,-1.895 H 0.664 Z M -0.506,0.92 H 0.533 L 2.332,-3.67 H 1.314 L 0.92,-2.617 H -0.941 L -1.342,-3.67 h -0.953 z"
             inkscape:connector-curvature="0" /></g><g
           transform="translate(353.3945,366.5049)"
           id="g482"><path
             id="path484"
             style="fill:#e3e3e3;fill-opacity:1;fill-rule:nonzero;stroke:none"
             d="M 0,0 H 0.924 V -3.865 H 2.705 V -4.59 H 0 Z"
             inkscape:connector-curvature="0" /></g><g
           transform="translate(287.5293,386.0576)"
           id="g486"><path
             id="path488"
             style="fill:#005285;fill-opacity:1;fill-rule:nonzero;stroke:none"
             d="m 0,0 c -0.689,0 -1.347,0.129 -1.953,0.385 -0.61,0.261 -1.141,0.621 -1.578,1.07 -0.437,0.445 -0.787,0.977 -1.043,1.576 -0.257,0.606 -0.387,1.254 -0.387,1.932 v 5.432 c 0,0.677 0.13,1.326 0.387,1.927 0.252,0.596 0.603,1.128 1.041,1.58 0.441,0.45 0.971,0.809 1.578,1.069 1.134,0.483 2.537,0.523 3.696,0.057 C 2.277,14.811 2.755,14.527 3.162,14.186 3.573,13.846 3.93,13.443 4.217,12.994 4.508,12.535 4.707,12.06 4.813,11.576 4.898,11.207 4.791,10.844 4.519,10.592 4.29,10.383 4.013,10.275 3.713,10.275 H 3.336 c -0.34,0 -0.639,0.145 -0.838,0.409 -0.122,0.166 -0.217,0.341 -0.291,0.533 -0.07,0.174 -0.173,0.359 -0.293,0.551 -0.1,0.155 -0.242,0.306 -0.417,0.441 -0.186,0.143 -0.403,0.262 -0.643,0.353 -0.459,0.175 -1.19,0.197 -1.747,-0.042 -0.275,-0.121 -0.516,-0.286 -0.733,-0.502 -0.209,-0.209 -0.376,-0.457 -0.497,-0.74 -0.12,-0.285 -0.18,-0.575 -0.18,-0.883 V 4.963 c 0,-0.326 0.059,-0.618 0.178,-0.893 0.119,-0.271 0.287,-0.518 0.5,-0.732 C -1.409,3.121 -1.168,2.957 -0.891,2.836 -0.619,2.717 -0.328,2.66 0,2.66 0.651,2.66 1.14,2.793 1.451,3.053 1.8,3.344 2.027,3.649 2.15,3.99 2.279,4.357 2.387,4.592 2.5,4.75 2.698,5.02 2.992,5.162 3.336,5.162 H 3.713 C 4.025,5.162 4.305,5.061 4.521,4.869 4.701,4.703 4.896,4.416 4.854,3.938 4.741,3.34 4.547,2.832 4.268,2.365 3.993,1.906 3.64,1.494 3.217,1.143 2.798,0.795 2.307,0.514 1.756,0.309 1.199,0.104 0.609,0 0,0"
             inkscape:connector-curvature="0" /></g><g
           transform="translate(295.8008,386.3818)"
           id="g490"><path
             id="path492"
             style="fill:#005285;fill-opacity:1;fill-rule:nonzero;stroke:none"
             d="m 0,0 h -0.297 c -0.711,0 -1.17,0.469 -1.17,1.195 v 8.875 c 0,0.674 0.131,1.324 0.389,1.928 0.253,0.598 0.604,1.13 1.045,1.58 0.435,0.449 0.966,0.808 1.574,1.068 0.603,0.256 1.252,0.387 1.93,0.387 h 0.375 c 0.286,0 0.554,-0.095 0.776,-0.277 0.183,-0.152 0.394,-0.428 0.394,-0.893 V 13.568 C 5.016,13.275 4.912,13 4.718,12.77 4.501,12.514 4.191,12.373 3.846,12.373 H 3.471 c -0.303,0 -0.595,-0.06 -0.867,-0.178 C 2.327,12.075 2.088,11.911 1.873,11.695 1.664,11.49 1.498,11.24 1.372,10.951 1.254,10.672 1.195,10.381 1.195,10.07 V 1.195 C 1.195,0.469 0.727,0 0,0"
             inkscape:connector-curvature="0" /></g><g
           transform="translate(306.7168,398.3232)"
           id="g494"><path
             id="path496"
             style="fill:#005285;fill-opacity:1;fill-rule:nonzero;stroke:none"
             d="M 0,0 C -0.33,0 -0.623,-0.059 -0.897,-0.178 -1.176,-0.297 -1.41,-0.459 -1.615,-0.67 -1.822,-0.881 -1.987,-1.133 -2.109,-1.418 -2.23,-1.703 -2.289,-1.992 -2.289,-2.301 v -5.433 c 0,-0.325 0.059,-0.617 0.178,-0.891 0.121,-0.277 0.285,-0.52 0.487,-0.721 0.206,-0.203 0.45,-0.367 0.724,-0.484 0.533,-0.231 1.211,-0.244 1.767,-0.002 0.282,0.121 0.532,0.285 0.748,0.494 0.209,0.201 0.375,0.442 0.494,0.713 0.12,0.274 0.178,0.566 0.178,0.891 v 5.433 c 0,0.309 -0.058,0.598 -0.181,0.885 C 1.987,-1.137 1.82,-0.889 1.607,-0.679 1.392,-0.463 1.15,-0.299 0.869,-0.178 0.6,-0.061 0.307,0 0,0 m 0.012,-12.592 c -0.677,0 -1.325,0.129 -1.927,0.387 -0.602,0.254 -1.134,0.605 -1.579,1.043 -0.453,0.441 -0.814,0.973 -1.069,1.576 -0.255,0.6 -0.384,1.248 -0.384,1.928 v 5.433 c 0,0.678 0.129,1.328 0.384,1.928 0.256,0.604 0.614,1.137 1.065,1.586 0.443,0.444 0.976,0.803 1.582,1.063 0.603,0.255 1.251,0.386 1.928,0.386 0.144,0 0.343,-0.014 0.59,-0.047 C 0.842,2.662 1.111,2.605 1.408,2.527 1.689,2.455 1.979,2.344 2.287,2.188 v 3.765 c 0,0.292 0.097,0.563 0.279,0.781 0.149,0.176 0.422,0.387 0.889,0.387 h 0.297 c 0.314,0 0.6,-0.106 0.824,-0.307 C 4.818,6.59 4.947,6.287 4.947,5.953 v -17.08 c 0,-0.289 -0.095,-0.559 -0.277,-0.779 -0.156,-0.184 -0.43,-0.391 -0.891,-0.391 H 3.482 c -0.296,0 -0.574,0.104 -0.802,0.301 -0.037,0.031 -0.072,0.064 -0.104,0.098 -0.179,-0.104 -0.371,-0.204 -0.575,-0.299 -0.568,-0.262 -1.237,-0.395 -1.989,-0.395"
             inkscape:connector-curvature="0" /></g><g
           transform="translate(330.2441,386.2871)"
           id="g498"><path
             id="path500"
             style="fill:#005285;fill-opacity:1;fill-rule:nonzero;stroke:none"
             d="M 0,0 H -0.297 C -0.768,0 -1.041,0.213 -1.188,0.393 -1.366,0.6 -1.465,0.873 -1.465,1.168 v 8.902 c 0,0.289 -0.058,0.563 -0.178,0.838 -0.118,0.274 -0.286,0.522 -0.5,0.737 -0.219,0.218 -0.468,0.394 -0.759,0.537 -0.526,0.252 -1.12,0.254 -1.696,0.011 -0.285,-0.121 -0.527,-0.283 -0.74,-0.498 -0.211,-0.21 -0.385,-0.463 -0.517,-0.754 -0.124,-0.279 -0.186,-0.566 -0.186,-0.871 V 1.168 c 0,-0.35 -0.145,-0.662 -0.406,-0.877 C -6.664,0.105 -6.941,0 -7.236,0 H -7.531 C -7.998,0 -8.271,0.211 -8.42,0.387 -8.603,0.6 -8.701,0.873 -8.701,1.168 v 8.902 c 0,0.305 -0.065,0.586 -0.195,0.862 -0.141,0.295 -0.32,0.55 -0.532,0.759 -0.215,0.217 -0.461,0.385 -0.738,0.506 -0.598,0.257 -1.2,0.215 -1.703,-0.002 -0.277,-0.119 -0.516,-0.283 -0.731,-0.5 -0.209,-0.208 -0.376,-0.456 -0.498,-0.74 -0.121,-0.283 -0.179,-0.572 -0.179,-0.885 V 1.168 C -13.277,0.82 -13.42,0.51 -13.678,0.295 -13.903,0.104 -14.18,0 -14.473,0 h -0.295 c -0.466,0 -0.74,0.211 -0.888,0.387 -0.184,0.22 -0.282,0.49 -0.282,0.781 v 12.373 c 0,0.711 0.459,1.17 1.17,1.17 h 0.295 c 0.407,0 0.733,-0.144 0.941,-0.395 0.218,0.127 0.452,0.243 0.699,0.346 0.9,0.372 1.815,0.508 2.901,0.231 0.356,-0.088 0.717,-0.215 1.1,-0.388 0.38,-0.168 0.748,-0.388 1.092,-0.65 0.133,-0.101 0.258,-0.209 0.377,-0.321 0.394,0.4 0.861,0.724 1.396,0.97 1.485,0.684 2.912,0.67 4.154,0.143 0.607,-0.258 1.136,-0.618 1.577,-1.067 0.44,-0.451 0.792,-0.983 1.046,-1.582 0.256,-0.606 0.385,-1.255 0.385,-1.928 V 1.168 C 1.195,0.818 1.051,0.506 0.789,0.291 0.567,0.104 0.292,0 0,0"
             inkscape:connector-curvature="0" /></g><g
           transform="translate(343.9971,385.9902)"
           id="g502"><path
             id="path504"
             style="fill:#005285;fill-opacity:1;fill-rule:nonzero;stroke:none"
             d="m 0,0 c -0.689,0 -1.347,0.129 -1.953,0.385 -0.604,0.258 -1.131,0.609 -1.572,1.049 -0.44,0.439 -0.792,0.962 -1.049,1.558 -0.258,0.595 -0.389,1.24 -0.389,1.916 v 8.957 c 0,0.349 0.145,0.66 0.408,0.877 0.218,0.188 0.495,0.293 0.789,0.293 h 0.297 c 0.465,0 0.739,-0.211 0.887,-0.389 0.186,-0.226 0.281,-0.496 0.281,-0.781 V 4.908 c 0,-0.291 0.057,-0.558 0.174,-0.818 0.12,-0.272 0.287,-0.514 0.5,-0.723 0.22,-0.221 0.463,-0.39 0.748,-0.523 C -0.374,2.609 0.263,2.586 0.838,2.836 1.118,2.959 1.363,3.119 1.588,3.328 1.795,3.52 1.963,3.756 2.089,4.029 2.215,4.3 2.275,4.578 2.275,4.881 v 8.984 c 0,0.353 0.139,0.655 0.401,0.873 0.221,0.192 0.499,0.297 0.793,0.297 h 0.297 c 0.363,0 0.678,-0.139 0.888,-0.389 0.184,-0.225 0.28,-0.494 0.28,-0.781 V 1.492 C 4.934,0.783 4.475,0.324 3.766,0.324 H 3.469 C 3.016,0.324 2.74,0.525 2.589,0.693 2.58,0.703 2.572,0.713 2.564,0.723 2.372,0.586 2.164,0.471 1.941,0.375 1.359,0.125 0.707,0 0,0"
             inkscape:connector-curvature="0" /></g><g
           transform="translate(355.7217,385.9902)"
           id="g506"><path
             id="path508"
             style="fill:#005285;fill-opacity:1;fill-rule:nonzero;stroke:none"
             d="m 0,0 h -0.042 c -0.612,0.041 -1.187,0.152 -1.707,0.33 -0.556,0.19 -1.048,0.479 -1.462,0.859 -0.417,0.385 -0.75,0.874 -0.987,1.448 -0.238,0.564 -0.359,1.24 -0.359,2.004 v 13.933 c 0,0.287 0.096,0.556 0.278,0.778 0.156,0.182 0.429,0.39 0.89,0.39 h 0.323 c 0.334,0 0.625,-0.117 0.841,-0.338 0.213,-0.214 0.329,-0.502 0.329,-0.83 V 4.641 c 0,-0.645 0.164,-1.102 0.499,-1.399 C -1.02,2.908 -0.543,2.717 0.063,2.656 0.281,2.65 0.557,2.564 0.776,2.385 0.959,2.232 1.17,1.957 1.17,1.492 V 1.17 C 1.17,0.84 1.055,0.551 0.837,0.332 0.619,0.115 0.33,0 0,0"
             inkscape:connector-curvature="0" /></g><g
           transform="translate(337.2871,386.2266)"
           id="g510"><path
             id="path512"
             style="fill:#005285;fill-opacity:1;fill-rule:nonzero;stroke:none"
             d="m 0,0 h -3.355 c -0.829,0 -1.5,0.672 -1.5,1.5 0,0.828 0.671,1.5 1.5,1.5 H 0 C 0.828,3 1.5,2.328 1.5,1.5 1.5,0.672 0.828,0 0,0"
             inkscape:connector-curvature="0" /></g><g
           transform="translate(328.6758,415.1362)"
           id="g514"><path
             id="path516"
             style="fill:#213787;fill-opacity:1;fill-rule:nonzero;stroke:none"
             d="m 0,0 -0.543,0.154 0.064,0.349 0.846,-0.261 0.227,-0.317 -2.057,-1.708 -0.255,0.352 z"
             inkscape:connector-curvature="0" /></g><g
           transform="translate(325.0615,412.0703)"
           id="g518"><path
             id="path520"
             style="fill:#0065aa;fill-opacity:1;fill-rule:nonzero;stroke:none"
             d="M 0,0 C 0.276,-0.381 0.808,0.009 1.039,0.198 1.272,0.394 1.743,0.865 1.479,1.229 1.218,1.598 0.674,1.228 0.442,1.033 0.21,0.842 -0.272,0.383 0,0 M 1.698,1.413 C 2.138,0.797 1.687,0.2 1.28,-0.142 0.876,-0.478 0.224,-0.794 -0.218,-0.182 c -0.439,0.615 0.01,1.216 0.416,1.554 0.406,0.336 1.057,0.655 1.5,0.041"
             inkscape:connector-curvature="0" /></g><g
           transform="translate(324.2158,411.4155)"
           id="g522"><path
             id="path524"
             style="fill:#0078b5;fill-opacity:1;fill-rule:nonzero;stroke:none"
             d="M 0,0 -0.466,0.133 -0.409,0.434 0.313,0.21 0.507,-0.061 -1.257,-1.529 -1.473,-1.223 Z"
             inkscape:connector-curvature="0" /></g><g
           transform="translate(321.3047,408.7568)"
           id="g526"><path
             id="path528"
             style="fill:#0090d5;fill-opacity:1;fill-rule:nonzero;stroke:none"
             d="M 0,0 C 0.225,-0.313 0.66,0.004 0.852,0.159 1.039,0.319 1.424,0.705 1.211,1.004 0.996,1.304 0.551,1 0.361,0.842 0.174,0.686 -0.221,0.311 0,0 M 1.386,1.151 C 1.75,0.649 1.379,0.161 1.047,-0.115 0.714,-0.392 0.185,-0.651 -0.177,-0.149 c -0.36,0.501 0.008,0.991 0.34,1.266 0.332,0.276 0.862,0.537 1.223,0.034"
             inkscape:connector-curvature="0" /></g><g
           transform="translate(318.0713,406.061)"
           id="g530"><path
             id="path532"
             style="fill:#44c8f5;fill-opacity:1;fill-rule:nonzero;stroke:none"
             d="M 0,0 C 0.19,-0.265 0.562,0.006 0.719,0.14 0.882,0.274 1.209,0.602 1.026,0.856 0.845,1.11 0.467,0.856 0.308,0.719 0.145,0.587 -0.19,0.266 0,0 M 1.175,0.981 C 1.482,0.555 1.172,0.14 0.888,-0.094 0.607,-0.33 0.155,-0.551 -0.151,-0.123 -0.456,0.302 -0.144,0.719 0.136,0.954 0.421,1.187 0.871,1.409 1.175,0.981"
             inkscape:connector-curvature="0" /></g><g
           transform="translate(317.502,405.6094)"
           id="g534"><path
             id="path536"
             style="fill:#8ad7f8;fill-opacity:1;fill-rule:nonzero;stroke:none"
             d="M 0,0 -0.336,0.095 -0.299,0.315 0.23,0.15 0.368,-0.044 -0.908,-1.111 -1.068,-0.89 Z"
             inkscape:connector-curvature="0" /></g><g
           transform="translate(320.6387,408.2275)"
           id="g538"><path
             id="path540"
             style="fill:#00afef;fill-opacity:1;fill-rule:nonzero;stroke:none"
             d="M 0,0 -0.34,0.098 -0.299,0.315 0.227,0.151 0.365,-0.044 -0.912,-1.109 -1.07,-0.888 Z"
             inkscape:connector-curvature="0" /></g><g
           transform="translate(315.3535,403.665)"
           id="g542"><path
             id="path544"
             style="fill:#8ad7f8;fill-opacity:1;fill-rule:nonzero;stroke:none"
             d="M 0,0 C 0.156,-0.215 0.457,0.002 0.588,0.114 0.721,0.224 0.987,0.491 0.839,0.697 0.689,0.904 0.381,0.695 0.25,0.585 0.119,0.478 -0.154,0.216 0,0 M 0.961,0.8 C 1.21,0.451 0.955,0.114 0.725,-0.078 0.498,-0.27 0.127,-0.451 -0.122,-0.1 -0.371,0.247 -0.117,0.585 0.111,0.777 0.342,0.968 0.71,1.149 0.961,0.8"
             inkscape:connector-curvature="0" /></g><g
           transform="translate(283.2119,358.5684)"
           id="g546"><path
             id="path548"
             style="fill:none;stroke:#005285;stroke-width:0.47400001;stroke-linecap:butt;stroke-linejoin:miter;stroke-miterlimit:10;stroke-dasharray:none;stroke-opacity:1"
             d="M 0,0 H 73.3"
             inkscape:connector-curvature="0" /></g><g
           transform="translate(272.9033,418.2881)"
           id="g550"><path
             id="path552"
             style="fill:#1c4483;fill-opacity:1;fill-rule:nonzero;stroke:none"
             d="m 0,0 0.017,-0.662 -0.405,0.051 -0.002,1.035 0.27,0.293 2.567,-2.33 -0.301,-0.332 z"
             inkscape:connector-curvature="0" /></g><g
           transform="translate(277.4824,414.1982)"
           id="g554"><path
             id="path556"
             style="fill:#00569b;fill-opacity:1;fill-rule:nonzero;stroke:none"
             d="M 0,0 C 0.323,0.357 -0.284,0.967 -0.57,1.229 -0.863,1.494 -1.539,2.018 -1.848,1.676 -2.16,1.332 -1.57,0.711 -1.278,0.449 -0.99,0.188 -0.326,-0.357 0,0 m -2.121,1.924 c 0.522,0.574 1.332,0.08 1.838,-0.379 C 0.224,1.084 0.791,0.326 0.271,-0.246 -0.252,-0.82 -1.061,-0.328 -1.568,0.131 -2.072,0.592 -2.643,1.348 -2.121,1.924"
             inkscape:connector-curvature="0" /></g><g
           transform="translate(278.4834,413.2354)"
           id="g558"><path
             id="path560"
             style="fill:#0078b5;fill-opacity:1;fill-rule:nonzero;stroke:none"
             d="m 0,0 0.013,-0.566 -0.347,0.039 0.001,0.886 0.229,0.252 2.201,-1.996 -0.259,-0.283 z"
             inkscape:connector-curvature="0" /></g><g
           transform="translate(282.3799,409.9541)"
           id="g562"><path
             id="path564"
             style="fill:#0090d5;fill-opacity:1;fill-rule:nonzero;stroke:none"
             d="M 0,0 C 0.265,0.293 -0.229,0.793 -0.466,1.006 -0.703,1.223 -1.253,1.65 -1.509,1.371 -1.763,1.092 -1.282,0.584 -1.045,0.369 -0.808,0.154 -0.267,-0.289 0,0 m -1.729,1.574 c 0.425,0.469 1.083,0.065 1.498,-0.312 0.415,-0.373 0.878,-0.991 0.452,-1.461 -0.425,-0.469 -1.085,-0.067 -1.497,0.306 -0.413,0.377 -0.88,0.997 -0.453,1.467"
             inkscape:connector-curvature="0" /></g><g
           transform="translate(284.4463,408.0791)"
           id="g566"><path
             id="path568"
             style="fill:#00afef;fill-opacity:1;fill-rule:nonzero;stroke:none"
             d="M 0,0 C 0.241,0.268 -0.208,0.719 -0.422,0.91 -0.638,1.107 -1.138,1.496 -1.366,1.242 -1.597,0.988 -1.159,0.531 -0.945,0.332 -0.731,0.141 -0.241,-0.264 0,0 M -1.568,1.424 C -1.181,1.85 -0.584,1.486 -0.208,1.145 0.165,0.803 0.589,0.244 0.201,-0.184 -0.185,-0.607 -0.784,-0.242 -1.155,0.098 -1.533,0.438 -1.953,1 -1.568,1.424"
             inkscape:connector-curvature="0" /></g><g
           transform="translate(286.4219,406.29)"
           id="g570"><path
             id="path572"
             style="fill:#44c8f5;fill-opacity:1;fill-rule:nonzero;stroke:none"
             d="M 0,0 C 0.224,0.248 -0.197,0.67 -0.396,0.852 -0.598,1.037 -1.066,1.4 -1.282,1.164 -1.501,0.926 -1.092,0.494 -0.887,0.313 -0.688,0.129 -0.225,-0.248 0,0 M -1.472,1.334 C -1.107,1.732 -0.55,1.391 -0.197,1.07 0.154,0.752 0.548,0.229 0.188,-0.172 -0.175,-0.57 -0.734,-0.229 -1.088,0.09 -1.438,0.41 -1.834,0.936 -1.472,1.334"
             inkscape:connector-curvature="0" /></g><g
           transform="translate(287.1094,405.6436)"
           id="g574"><path
             id="path576"
             style="fill:#8ad7f8;fill-opacity:1;fill-rule:nonzero;stroke:none"
             d="m 0,0 0.011,-0.412 -0.252,0.031 -0.001,0.645 0.166,0.179 1.599,-1.447 -0.187,-0.207 z"
             inkscape:connector-curvature="0" /></g><g
           transform="translate(273.1069,423.4736)"
           id="g578"><path
             id="path580"
             style="fill:#1c4483;fill-opacity:1;fill-rule:nonzero;stroke:none"
             d="m 0,0 -0.051,-0.692 -0.415,0.091 0.104,1.083 0.311,0.279 2.441,-2.702 -0.348,-0.315 z"
             inkscape:connector-curvature="0" /></g><g
           transform="translate(277.4883,418.7725)"
           id="g582"><path
             id="path584"
             style="fill:#1c4483;fill-opacity:1;fill-rule:nonzero;stroke:none"
             d="M 0,0 C 0.355,0.324 -0.187,0.99 -0.447,1.279 -0.713,1.572 -1.331,2.162 -1.674,1.852 -2.017,1.539 -1.494,0.865 -1.229,0.572 -0.969,0.283 -0.36,-0.322 0,0 m -1.92,2.125 c 0.574,0.52 1.332,-0.053 1.791,-0.561 0.457,-0.505 0.947,-1.316 0.375,-1.835 -0.578,-0.522 -1.334,0.048 -1.792,0.556 -0.46,0.51 -0.95,1.317 -0.374,1.84"
             inkscape:connector-curvature="0" /></g><g
           transform="translate(278.3867,417.7158)"
           id="g586"><path
             id="path588"
             style="fill:#0078b5;fill-opacity:1;fill-rule:nonzero;stroke:none"
             d="m 0,0 -0.042,-0.566 -0.341,0.076 0.089,0.881 0.253,0.228 1.992,-2.205 -0.285,-0.258 z"
             inkscape:connector-curvature="0" /></g><g
           transform="translate(281.9414,414.0654)"
           id="g590"><path
             id="path592"
             style="fill:#0090d5;fill-opacity:1;fill-rule:nonzero;stroke:none"
             d="M 0,0 C 0.291,0.264 -0.149,0.809 -0.364,1.047 -0.579,1.283 -1.086,1.766 -1.367,1.514 -1.646,1.258 -1.219,0.707 -1.004,0.469 -0.791,0.232 -0.295,-0.264 0,0 M -1.566,1.734 C -1.096,2.16 -0.48,1.693 -0.104,1.277 0.268,0.865 0.672,0.205 0.199,-0.221 -0.27,-0.646 -0.889,-0.18 -1.26,0.234 c -0.376,0.414 -0.778,1.077 -0.306,1.5"
             inkscape:connector-curvature="0" /></g><g
           transform="translate(283.8115,411.9971)"
           id="g594"><path
             id="path596"
             style="fill:#00afef;fill-opacity:1;fill-rule:nonzero;stroke:none"
             d="M 0,0 C 0.265,0.238 -0.135,0.73 -0.329,0.945 -0.524,1.162 -0.983,1.598 -1.236,1.369 -1.491,1.139 -1.104,0.641 -0.908,0.422 -0.714,0.207 -0.265,-0.24 0,0 M -1.417,1.57 C -0.991,1.953 -0.435,1.531 -0.096,1.156 0.245,0.779 0.61,0.182 0.184,-0.205 -0.243,-0.59 -0.804,-0.168 -1.142,0.209 -1.481,0.588 -1.845,1.184 -1.417,1.57"
             inkscape:connector-curvature="0" /></g><g
           transform="translate(285.5996,410.0186)"
           id="g598"><path
             id="path600"
             style="fill:#44c8f5;fill-opacity:1;fill-rule:nonzero;stroke:none"
             d="M 0,0 C 0.248,0.223 -0.129,0.686 -0.309,0.885 -0.493,1.088 -0.924,1.5 -1.162,1.283 -1.4,1.07 -1.037,0.6 -0.854,0.396 -0.67,0.195 -0.249,-0.227 0,0 m -1.332,1.471 c 0.399,0.363 0.924,-0.033 1.242,-0.385 0.319,-0.352 0.658,-0.914 0.26,-1.277 -0.4,-0.36 -0.925,0.037 -1.243,0.388 -0.318,0.352 -0.659,0.914 -0.259,1.274"
             inkscape:connector-curvature="0" /></g><g
           transform="translate(286.2207,409.3076)"
           id="g602"><path
             id="path604"
             style="fill:#8ad7f8;fill-opacity:1;fill-rule:nonzero;stroke:none"
             d="m 0,0 -0.031,-0.412 -0.248,0.055 0.064,0.642 0.183,0.164 1.449,-1.601 -0.208,-0.188 z"
             inkscape:connector-curvature="0" /></g><g
           transform="translate(288.8223,406.6123)"
           id="g606"><path
             id="path608"
             style="fill:#b1e3fa;fill-opacity:1;fill-rule:nonzero;stroke:none"
             d="m 0,0 c 0.201,0.184 -0.105,0.561 -0.254,0.725 -0.15,0.166 -0.502,0.5 -0.693,0.324 C -1.143,0.873 -0.848,0.49 -0.697,0.324 -0.549,0.162 -0.203,-0.182 0,0 M -1.088,1.203 C -0.762,1.498 -0.334,1.174 -0.075,0.887 0.184,0.6 0.465,0.143 0.136,-0.152 -0.189,-0.449 -0.617,-0.125 -0.876,0.162 -1.135,0.451 -1.415,0.908 -1.088,1.203"
             inkscape:connector-curvature="0" /></g><g
           transform="translate(289.9805,403.0459)"
           id="g610"><path
             id="path612"
             style="fill:#b1e3fa;fill-opacity:1;fill-rule:nonzero;stroke:none"
             d="m 0,0 c 0.201,0.184 -0.104,0.561 -0.254,0.725 -0.15,0.166 -0.502,0.5 -0.694,0.324 C -1.143,0.873 -0.847,0.49 -0.697,0.324 -0.55,0.162 -0.203,-0.182 0,0 M -1.089,1.203 C -0.761,1.498 -0.335,1.174 -0.075,0.887 0.184,0.6 0.464,0.143 0.136,-0.152 -0.189,-0.449 -0.616,-0.125 -0.876,0.162 -1.135,0.451 -1.415,0.908 -1.089,1.203"
             inkscape:connector-curvature="0" /></g><g
           transform="translate(281.2031,420.2886)"
           id="g614"><path
             id="path616"
             style="fill:#213787;fill-opacity:1;fill-rule:nonzero;stroke:none"
             d="M 0,0 C 0.368,0.232 -0.01,0.905 -0.194,1.204 -0.384,1.503 -0.841,2.124 -1.19,1.902 -1.546,1.681 -1.188,0.999 -0.997,0.7 -0.812,0.402 -0.368,-0.23 0,0 m -1.369,2.183 c 0.593,0.369 1.173,-0.256 1.5,-0.777 0.327,-0.52 0.637,-1.316 0.047,-1.687 -0.593,-0.369 -1.175,0.253 -1.502,0.775 -0.325,0.524 -0.637,1.315 -0.045,1.689"
             inkscape:connector-curvature="0" /></g><g
           transform="translate(281.8604,419.4116)"
           id="g618"><path
             id="path620"
             style="fill:#0078b5;fill-opacity:1;fill-rule:nonzero;stroke:none"
             d="m 0,0 -0.109,-0.401 -0.256,0.098 0.189,0.622 0.229,0.133 1.251,-1.836 -0.259,-0.147 z"
             inkscape:connector-curvature="0" /></g><g
           transform="translate(278.7002,408.3091)"
           id="g622"><path
             id="path624"
             style="fill:#0090d5;fill-opacity:1;fill-rule:nonzero;stroke:none"
             d="m 0,0 0.062,-0.564 -0.35,0.013 -0.073,0.883 0.208,0.27 2.359,-1.805 -0.233,-0.305 z"
             inkscape:connector-curvature="0" /></g><g
           transform="translate(284.415,415.8115)"
           id="g626"><path
             id="path628"
             style="fill:#0090d5;fill-opacity:1;fill-rule:nonzero;stroke:none"
             d="M 0,0 C 0.301,0.188 -0.005,0.74 -0.158,0.982 -0.311,1.227 -0.686,1.735 -0.973,1.556 -1.262,1.375 -0.968,0.817 -0.814,0.571 -0.662,0.329 -0.3,-0.187 0,0 M -1.115,1.781 C -0.634,2.084 -0.161,1.577 0.107,1.148 0.375,0.724 0.628,0.077 0.143,-0.227 -0.34,-0.531 -0.813,-0.02 -1.078,0.404 -1.347,0.83 -1.601,1.48 -1.115,1.781"
             inkscape:connector-curvature="0" /></g><g
           transform="translate(285.751,413.6846)"
           id="g630"><path
             id="path632"
             style="fill:#00afef;fill-opacity:1;fill-rule:nonzero;stroke:none"
             d="M 0,0 C 0.273,0.17 -0.005,0.671 -0.146,0.891 -0.284,1.113 -0.621,1.571 -0.881,1.408 -1.145,1.243 -0.879,0.742 -0.738,0.517 -0.601,0.299 -0.273,-0.17 0,0 m -1.013,1.614 c 0.439,0.272 0.867,-0.187 1.111,-0.573 0.24,-0.387 0.47,-0.974 0.031,-1.25 -0.438,-0.274 -0.867,0.188 -1.108,0.575 -0.244,0.386 -0.472,0.973 -0.034,1.248"
             inkscape:connector-curvature="0" /></g><g
           transform="translate(287.0264,411.6523)"
           id="g634"><path
             id="path636"
             style="fill:#44c8f5;fill-opacity:1;fill-rule:nonzero;stroke:none"
             d="M 0,0 C 0.254,0.16 -0.006,0.627 -0.135,0.835 -0.268,1.042 -0.583,1.473 -0.829,1.32 -1.072,1.167 -0.824,0.693 -0.693,0.487 -0.564,0.28 -0.256,-0.16 0,0 m -0.949,1.514 c 0.41,0.258 0.811,-0.175 1.039,-0.538 0.228,-0.361 0.44,-0.911 0.031,-1.171 -0.412,-0.259 -0.812,0.176 -1.041,0.54 -0.226,0.36 -0.441,0.912 -0.029,1.169"
             inkscape:connector-curvature="0" /></g><g
           transform="translate(287.4678,410.9263)"
           id="g638"><path
             id="path640"
             style="fill:#8ad7f8;fill-opacity:1;fill-rule:nonzero;stroke:none"
             d="M 0,0 -0.094,-0.36 -0.303,-0.274 -0.15,0.287 0.039,0.401 1.073,-1.243 0.859,-1.376 Z"
             inkscape:connector-curvature="0" /></g><g
           transform="translate(289.3486,408.1313)"
           id="g642"><path
             id="path644"
             style="fill:#b1e3fa;fill-opacity:1;fill-rule:nonzero;stroke:none"
             d="M 0,0 C 0.207,0.13 -0.005,0.512 -0.111,0.679 -0.219,0.849 -0.477,1.201 -0.676,1.078 -0.874,0.949 -0.672,0.564 -0.566,0.396 -0.461,0.227 -0.206,-0.13 0,0 M -0.775,1.236 C -0.438,1.447 -0.111,1.092 0.073,0.796 0.259,0.503 0.436,0.053 0.098,-0.158 -0.236,-0.367 -0.564,-0.016 -0.75,0.28 -0.934,0.575 -1.109,1.023 -0.775,1.236"
             inkscape:connector-curvature="0" /></g><g
           transform="translate(291.1719,412.2598)"
           id="g646"><path
             id="path648"
             style="fill:#1c4483;fill-opacity:1;fill-rule:nonzero;stroke:none"
             d="M 0,0 C 0.61,0.287 0.156,1.397 -0.076,1.89 -0.313,2.387 -0.905,3.427 -1.489,3.15 -2.072,2.875 -1.644,1.758 -1.408,1.262 -1.177,0.768 -0.609,-0.291 0,0 M -1.707,3.613 C -0.725,4.078 0.053,3.008 0.461,2.145 0.869,1.279 1.203,-0.003 0.22,-0.464 -0.76,-0.931 -1.539,0.141 -1.949,1.007 -2.356,1.87 -2.688,3.152 -1.707,3.613"
             inkscape:connector-curvature="0" /></g><g
           transform="translate(294.3789,405.3301)"
           id="g650"><path
             id="path652"
             style="fill:#44c8f5;fill-opacity:1;fill-rule:nonzero;stroke:none"
             d="M 0,0 C 0.436,0.207 0.107,1.001 -0.059,1.354 -0.227,1.709 -0.648,2.454 -1.063,2.256 -1.486,2.057 -1.18,1.259 -1.01,0.904 -0.846,0.55 -0.438,-0.206 0,0 M -1.222,2.589 C -0.521,2.92 0.037,2.152 0.329,1.534 0.621,0.916 0.855,-0.001 0.158,-0.332 -0.547,-0.662 -1.105,0.102 -1.398,0.721 -1.687,1.34 -1.926,2.253 -1.222,2.589"
             inkscape:connector-curvature="0" /></g><g
           transform="translate(292.8379,408.5459)"
           id="g654"><path
             id="path656"
             style="fill:#0065aa;fill-opacity:1;fill-rule:nonzero;stroke:none"
             d="M 0,0 C 0.477,0.232 0.105,1.103 -0.082,1.486 -0.271,1.877 -0.747,2.689 -1.202,2.468 -1.661,2.241 -1.313,1.368 -1.121,0.979 -0.937,0.593 -0.475,-0.234 0,0 M -1.381,2.83 C -0.613,3.204 0.011,2.369 0.342,1.693 0.671,1.017 0.943,0.012 0.179,-0.363 c -0.771,-0.374 -1.395,0.46 -1.725,1.134 -0.328,0.678 -0.602,1.68 0.165,2.059"
             inkscape:connector-curvature="0" /></g><g
           transform="translate(294.9346,404.0566)"
           id="g658"><path
             id="path660"
             style="fill:#8ad7f8;fill-opacity:1;fill-rule:nonzero;stroke:none"
             d="M 0,0 -0.204,-0.529 -0.509,-0.358 -0.17,0.46 0.138,0.605 1.407,-2.082 1.06,-2.243 Z"
             inkscape:connector-curvature="0" /></g><g
           transform="translate(274.0879,411.5317)"
           id="g662"><path
             id="path664"
             style="fill:#1c4483;fill-opacity:1;fill-rule:nonzero;stroke:none"
             d="M 0,0 C 0.389,0.551 -0.551,1.295 -0.994,1.609 -1.442,1.93 -2.469,2.545 -2.841,2.02 -3.215,1.494 -2.296,0.727 -1.848,0.41 -1.404,0.096 -0.389,-0.549 0,0 m -3.258,2.316 c 0.628,0.885 1.83,0.334 2.61,-0.22 0.779,-0.553 1.696,-1.508 1.065,-2.393 -0.626,-0.885 -1.831,-0.334 -2.61,0.223 -0.781,0.554 -1.695,1.506 -1.065,2.39"
             inkscape:connector-curvature="0" /></g><g
           transform="translate(275.3574,410.5747)"
           id="g666"><path
             id="path668"
             style="fill:#0065aa;fill-opacity:1;fill-rule:nonzero;stroke:none"
             d="M 0,0 0.094,-0.652 -0.313,-0.654 -0.438,0.371 -0.205,0.697 2.619,-1.314 2.359,-1.68 Z"
             inkscape:connector-curvature="0" /></g><g
           transform="translate(281.4941,406.2153)"
           id="g670"><path
             id="path672"
             style="fill:#00afef;fill-opacity:1;fill-rule:nonzero;stroke:none"
             d="M 0,0 0.082,-0.559 -0.268,-0.561 -0.373,0.32 -0.176,0.598 2.248,-1.125 2.023,-1.438 Z"
             inkscape:connector-curvature="0" /></g><g
           transform="translate(285.9961,403.2485)"
           id="g674"><path
             id="path676"
             style="fill:#44c8f5;fill-opacity:1;fill-rule:nonzero;stroke:none"
             d="M 0,0 C 0.229,0.32 -0.321,0.756 -0.581,0.941 -0.844,1.129 -1.439,1.49 -1.662,1.182 -1.88,0.873 -1.343,0.426 -1.08,0.24 -0.82,0.055 -0.229,-0.32 0,0 m -1.904,1.354 c 0.366,0.517 1.069,0.195 1.525,-0.131 0.455,-0.321 0.988,-0.877 0.623,-1.397 -0.366,-0.517 -1.07,-0.193 -1.524,0.129 -0.455,0.326 -0.991,0.883 -0.624,1.399"
             inkscape:connector-curvature="0" /></g><g
           transform="translate(271.5186,419.248)"
           id="g678"><path
             id="path680"
             style="fill:#1c4483;fill-opacity:1;fill-rule:nonzero;stroke:none"
             d="M 0,0 C 0.467,0.515 -0.41,1.393 -0.822,1.769 -1.244,2.15 -2.217,2.905 -2.66,2.415 -3.111,1.918 -2.262,1.023 -1.84,0.646 -1.428,0.269 -0.471,-0.516 0,0 M -3.057,2.77 C -2.303,3.599 -1.139,2.885 -0.408,2.226 0.322,1.562 1.14,0.47 0.389,-0.357 -0.363,-1.183 -1.527,-0.476 -2.26,0.188 -2.986,0.852 -3.807,1.939 -3.057,2.77"
             inkscape:connector-curvature="0" /></g><g
           transform="translate(266.5068,397.6274)"
           id="g682"><path
             id="path684"
             style="fill:#00569b;fill-opacity:1;fill-rule:nonzero;stroke:none"
             d="M 0,0 0.325,-0.473 -0.015,-0.653 -0.5,0.099 -0.428,0.457 2.672,0.13 2.596,-0.271 Z"
             inkscape:connector-curvature="0" /></g><g
           transform="translate(262.4141,398.0972)"
           id="g686"><path
             id="path688"
             style="fill:#1c4483;fill-opacity:1;fill-rule:nonzero;stroke:none"
             d="M 0,0 0.358,-0.521 -0.015,-0.718 -0.554,0.109 -0.474,0.504 2.938,0.145 2.854,-0.298 Z"
             inkscape:connector-curvature="0" /></g><g
           transform="translate(272.0127,397.0889)"
           id="g690"><path
             id="path692"
             style="fill:#0090d5;fill-opacity:1;fill-rule:nonzero;stroke:none"
             d="M 0,0 C 0.085,0.39 -0.676,0.498 -1.024,0.532 -1.377,0.565 -2.152,0.585 -2.232,0.21 -2.314,-0.167 -1.564,-0.291 -1.212,-0.322 -0.863,-0.356 -0.088,-0.392 0,0 m -2.518,0.242 c 0.138,0.629 1.002,0.692 1.616,0.636 0.611,-0.059 1.41,-0.282 1.275,-0.91 -0.138,-0.63 -1.002,-0.696 -1.615,-0.638 -0.612,0.06 -1.412,0.28 -1.276,0.912"
             inkscape:connector-curvature="0" /></g><g
           transform="translate(273.248,396.9272)"
           id="g694"><path
             id="path696"
             style="fill:#0099d4;fill-opacity:1;fill-rule:nonzero;stroke:none"
             d="M 0,0 0.276,-0.406 -0.013,-0.561 -0.429,0.083 -0.369,0.39 2.292,0.111 2.223,-0.233 Z"
             inkscape:connector-curvature="0" /></g><g
           transform="translate(278.0439,396.5879)"
           id="g698"><path
             id="path700"
             style="fill:#00afef;fill-opacity:1;fill-rule:nonzero;stroke:none"
             d="m 0,0 c 0.074,0.319 -0.576,0.407 -0.877,0.434 -0.3,0.028 -0.966,0.044 -1.039,-0.262 -0.07,-0.306 0.578,-0.407 0.879,-0.434 C -0.738,-0.29 -0.072,-0.318 0,0 m -2.193,0.196 c 0.117,0.514 0.855,0.566 1.382,0.519 0.524,-0.047 1.21,-0.228 1.094,-0.741 -0.119,-0.512 -0.859,-0.565 -1.383,-0.518 -0.526,0.047 -1.213,0.229 -1.093,0.74"
             inkscape:connector-curvature="0" /></g></g></g></g></svg>